<svg width="187" height="187" viewBox="0 0 187 187" fill="none" xmlns="http://www.w3.org/2000/svg">
<path d="M78.1294 5.82825C77.3565 5.82825 76.6155 6.13529 76.069 6.68178C75.5225 7.22828 75.2153 7.96947 75.2153 8.74233V24.0238C68.9792 25.6557 63.0112 28.1035 57.422 31.3265L46.6692 20.5735C46.1227 20.0272 45.3816 19.7203 44.6089 19.7203C43.8362 19.7203 43.095 20.0272 42.5485 20.5735L20.827 42.3009C20.2807 42.8474 19.9736 43.5885 19.9736 44.3612C19.9736 45.1339 20.2807 45.875 20.827 46.4214L31.609 57.2036C28.3685 62.7811 25.8917 68.7375 24.2423 74.9737H8.98995C8.21709 74.9737 7.47574 75.2807 6.92925 75.8272C6.38275 76.3737 6.07587 77.1149 6.07587 77.8877V108.608C6.07587 109.381 6.38275 110.122 6.92925 110.669C7.47574 111.215 8.21709 111.522 8.98995 111.522H24.2772C25.909 117.758 28.357 123.732 31.5858 129.315L20.827 140.074C20.2807 140.621 19.9736 141.362 19.9736 142.135C19.9736 142.907 20.2807 143.648 20.827 144.195L42.5485 165.922C43.095 166.469 43.8362 166.775 44.6089 166.775C45.3816 166.775 46.1227 166.469 46.6692 165.922L57.4512 155.14C63.0229 158.381 68.985 160.852 75.2153 162.495V177.765C75.2153 178.538 75.5225 179.279 76.069 179.826C76.6155 180.372 77.3565 180.679 78.1294 180.679H108.867C109.64 180.679 110.381 180.372 110.928 179.826C111.474 179.279 111.782 178.538 111.782 177.765V162.472C118.018 160.84 123.986 158.392 129.569 155.163L140.328 165.922C140.874 166.469 141.615 166.775 142.388 166.775C143.161 166.775 143.902 166.469 144.448 165.922L166.17 144.195C166.716 143.648 167.023 142.907 167.023 142.135C167.023 141.362 166.716 140.621 166.17 140.074L155.388 129.292C158.628 123.715 161.105 117.752 162.755 111.522H178.007C178.78 111.522 179.521 111.215 180.068 110.669C180.614 110.122 180.921 109.381 180.921 108.608V77.8877C180.921 77.1149 180.614 76.3737 180.068 75.8272C179.521 75.2807 178.78 74.9737 178.007 74.9737H162.72C161.088 68.7375 158.64 62.7636 155.411 57.1802L166.17 46.4214C166.716 45.875 167.023 45.1339 167.023 44.3612C167.023 43.5885 166.716 42.8474 166.17 42.3009L144.448 20.5735C143.902 20.0272 143.161 19.7203 142.388 19.7203C141.615 19.7203 140.874 20.0272 140.328 20.5735L129.546 31.3556C123.98 28.1193 118.006 25.6454 111.782 24.0005V8.74233C111.782 7.96947 111.474 7.22828 110.928 6.68178C110.381 6.13529 109.64 5.82825 108.867 5.82825H78.1294ZM81.0435 11.6564H105.953V25.9121C105.955 26.5702 106.179 27.2084 106.59 27.7227C107.001 28.237 107.573 28.5972 108.215 28.7446C115.477 30.3998 122.4 33.2673 128.706 37.2246C129.266 37.5778 129.93 37.7299 130.588 37.6557C131.245 37.5816 131.858 37.2856 132.326 36.8166L142.391 26.7514L159.992 44.3641L149.962 54.3886C149.494 54.8554 149.199 55.4673 149.125 56.1238C149.051 56.7804 149.202 57.4427 149.554 58.002C153.495 64.3203 156.342 71.2579 157.975 78.523C158.12 79.1666 158.48 79.7418 158.994 80.1547C159.509 80.5676 160.148 80.7937 160.808 80.796H175.093V105.694H160.843C160.181 105.692 159.538 105.915 159.02 106.327C158.502 106.74 158.14 107.316 157.993 107.961C156.342 115.221 153.479 122.151 149.524 128.459C149.172 129.017 149.02 129.679 149.093 130.336C149.166 130.992 149.46 131.605 149.927 132.072L159.986 142.132L142.385 159.744L132.349 149.702C131.883 149.239 131.275 148.947 130.622 148.873C129.969 148.799 129.311 148.947 128.753 149.294C122.433 153.236 115.493 156.083 108.226 157.716C107.581 157.862 107.004 158.223 106.591 158.74C106.178 159.256 105.953 159.899 105.953 160.56V174.845H81.0435V160.584C81.0418 159.926 80.8173 159.287 80.4067 158.773C79.9961 158.259 79.4235 157.899 78.7821 157.751C71.5233 156.097 64.5955 153.23 58.2903 149.271C57.7304 148.918 57.0671 148.766 56.4093 148.84C55.7514 148.914 55.1384 149.21 54.6712 149.679L44.606 159.744L27.0048 142.132L37.0409 132.107C37.5084 131.64 37.8037 131.028 37.8779 130.372C37.952 129.715 37.8006 129.053 37.4489 128.494C33.5059 122.176 30.6569 115.238 29.0214 107.973C28.8763 107.329 28.5172 106.754 28.0026 106.341C27.4881 105.928 26.8485 105.702 26.1888 105.7H11.904V80.796H26.154C26.8149 80.7966 27.4563 80.5726 27.9731 80.1606C28.4899 79.7486 28.8512 79.1733 28.998 78.5288C30.652 71.2663 33.5189 64.3346 37.478 58.0253C37.8283 57.4666 37.9787 56.8055 37.9046 56.1502C37.8305 55.4949 37.5362 54.8842 37.07 54.4177L27.0105 44.3583L44.6117 26.7456L54.6477 36.7875C55.1134 37.2509 55.722 37.5433 56.3748 37.6174C57.0275 37.6914 57.6861 37.5427 58.2437 37.1955C64.5637 33.2539 71.5036 30.4067 78.7707 28.7738C79.4162 28.6282 79.9929 28.2672 80.406 27.7503C80.8191 27.2334 81.0438 26.5913 81.0435 25.9296V11.6564Z" fill="#DE901B"/>
<path d="M93.3933 46.6256C93.0828 46.635 92.7758 46.6941 92.484 46.8004C82.1623 50.6179 66.1233 57.058 52.701 57.058C51.9281 57.058 51.1868 57.365 50.6403 57.9115C50.0938 58.458 49.7869 59.1992 49.7869 59.9721C49.7869 109.745 70.9899 132.708 92.0063 145.285C92.4589 145.556 92.9763 145.699 93.5039 145.699C94.0315 145.699 94.5493 145.556 95.0018 145.285C115.791 132.842 137.209 109.611 137.209 59.9663C137.209 59.1934 136.903 58.4522 136.356 57.9057C135.81 57.3592 135.068 57.0522 134.295 57.0522C116.49 57.0522 103.75 50.3498 94.5472 46.8237C94.1799 46.6803 93.7874 46.6129 93.3933 46.6256ZM93.4516 52.6519C101.483 55.8282 114.247 61.5515 131.119 62.3616C130.402 107.204 112.236 127.509 93.4982 139.177C74.5392 127.381 56.5653 107.332 55.8659 62.3383C69.7369 61.5224 83.9925 56.1838 93.4516 52.6519Z" fill="url(#paint0_linear_234_508)"/>
<path fill-rule="evenodd" clip-rule="evenodd" d="M103.505 84.2696L89.4822 97.5811L83.4558 91.8754L79.4522 96.1124L89.4765 105.612L107.521 88.5067L103.505 84.2696Z" fill="#EEEFF0"/>
<defs>
<linearGradient id="paint0_linear_234_508" x1="93.4982" y1="46.6241" x2="93.4982" y2="145.699" gradientUnits="userSpaceOnUse">
<stop stop-color="#DE901B"/>
<stop offset="1" stop-color="#B66C00"/>
</linearGradient>
</defs>
</svg>
