<svg width="188" height="187" viewBox="0 0 188 187" fill="none" xmlns="http://www.w3.org/2000/svg">
<g clip-path="url(#clip0_234_513)">
<path fill-rule="evenodd" clip-rule="evenodd" d="M32.8047 46.6196V52.8148H38.6329V46.6196H32.8047ZM44.461 40.7914V53.1649H50.2892V40.7914H44.461ZM56.1174 46.6196V52.8148H61.9455V46.6196H56.1174ZM67.7737 40.7914V53.1649H73.6019V40.7914H67.7737ZM114.399 46.6196V52.8148H120.227V46.6196H114.399ZM126.055 40.7914V53.1649H131.884V40.7914H126.055ZM137.712 46.6196V52.8148H143.54V46.6196H137.712ZM149.368 40.7914V53.1649H155.196V40.7914H149.368Z" fill="#FFF8EE"/>
<path d="M24.0624 23.3065C23.2896 23.3065 22.5484 23.6138 22.0019 24.1603C21.4554 24.7067 21.1484 25.4477 21.1484 26.2206V55.3614C21.1484 56.1343 21.4554 56.876 22.0019 57.4225C22.5484 57.969 23.2896 58.2755 24.0624 58.2755H82.6763C86.6162 58.3338 86.6162 52.3891 82.6763 52.4474H26.9765V29.1347H85.6487C89.5885 29.193 89.5885 23.2482 85.6487 23.3065H24.0624ZM108.524 23.3065C104.584 23.2482 104.584 29.193 108.524 29.1347H161.024V52.4474H109.591C105.651 52.3891 105.651 58.3338 109.591 58.2755H163.938C164.711 58.2755 165.453 57.969 165.999 57.4225C166.546 56.876 166.853 56.1343 166.853 55.3614V26.2206C166.853 25.4477 166.546 24.7067 165.999 24.1603C165.453 23.6138 164.711 23.3065 163.938 23.3065H108.524ZM26.9765 81.5946C26.2037 81.5946 25.4625 81.9011 24.916 82.4476C24.3695 82.9941 24.0624 83.7358 24.0624 84.5087V171.931C24.0624 172.704 24.3695 173.445 24.916 173.992C25.4625 174.538 26.2037 174.845 26.9765 174.845H166.853C167.625 174.845 168.367 174.538 168.913 173.992C169.46 173.445 169.767 172.704 169.767 171.931V84.5087C169.767 83.7358 169.46 82.9941 168.913 82.4476C168.367 81.9011 167.625 81.5946 166.853 81.5946H106.088V87.4228H163.938V169.017H29.8906V87.4228H87.706V81.5946H26.9765Z" fill="url(#paint0_linear_234_513)"/>
<path d="M96.6526 0.00575646C96.0843 0.0165914 95.5315 0.19342 95.0624 0.514441C94.5933 0.835461 94.2283 1.28664 94.0124 1.81247L82.6184 29.9338C82.4466 30.2926 82.3502 30.6825 82.3349 31.08C82.3196 31.4774 82.3859 31.8737 82.5295 32.2446C82.6732 32.6155 82.8913 32.9529 83.1703 33.2364C83.4493 33.5198 83.7834 33.7429 84.152 33.8923C84.5206 34.0417 84.9158 34.1141 85.3135 34.105C85.7111 34.0959 86.1026 34.0058 86.464 33.8397C86.8253 33.6735 87.1489 33.4347 87.4146 33.1389C87.6804 32.843 87.8828 32.4964 88.0094 32.1194L96.7284 10.6131L105.576 32.0376C105.709 32.4072 105.917 32.7461 106.185 33.0336C106.453 33.321 106.777 33.5511 107.136 33.7102C107.496 33.8693 107.884 33.954 108.277 33.9592C108.67 33.9644 109.06 33.8896 109.424 33.7401C109.787 33.5905 110.117 33.3693 110.393 33.0891C110.668 32.8088 110.885 32.4754 111.028 32.1094C111.172 31.7434 111.24 31.352 111.228 30.959C111.217 30.566 111.126 30.1797 110.961 29.8228L99.4035 1.80678C99.1795 1.26459 98.7971 0.802674 98.3063 0.481358C97.8155 0.160043 97.2391 -0.00583369 96.6526 0.00575646ZM108.425 104.866C108.043 104.874 107.665 104.957 107.315 105.11C106.964 105.264 106.647 105.485 106.382 105.761C106.117 106.037 105.908 106.362 105.769 106.719C105.63 107.075 105.562 107.456 105.57 107.839L105.628 116.569C105.634 117.33 105.49 118.085 105.203 118.789C104.917 119.494 104.494 120.135 103.959 120.675C103.424 121.216 102.787 121.645 102.085 121.939C101.383 122.232 100.63 122.384 99.8697 122.386H94.0649C94.061 122.386 94.0571 122.386 94.0532 122.386C93.2899 122.398 92.5318 122.258 91.8235 121.973C91.1152 121.688 90.4711 121.264 89.9291 120.726C89.3871 120.189 88.9582 119.549 88.6675 118.843C88.3769 118.137 88.2304 117.379 88.2367 116.616L88.1784 107.873C88.1746 107.491 88.0954 107.113 87.9455 106.761C87.7955 106.409 87.5776 106.09 87.3043 105.822C87.031 105.554 86.7076 105.342 86.3526 105.199C85.9976 105.056 85.6179 104.985 85.2352 104.989C84.8525 104.992 84.4743 105.072 84.1222 105.222C83.7702 105.372 83.4511 105.59 83.1832 105.863C82.9153 106.136 82.7038 106.46 82.5609 106.815C82.418 107.17 82.3464 107.549 82.3503 107.932L82.4085 116.651C82.427 119.73 83.6632 122.677 85.8472 124.848C88.0312 127.019 90.9855 128.237 94.0649 128.237H99.8697C102.952 128.219 105.902 126.98 108.073 124.792C110.244 122.605 111.461 119.646 111.456 116.564L111.398 107.833C111.401 107.443 111.326 107.057 111.177 106.697C111.029 106.337 110.809 106.01 110.532 105.736C110.255 105.462 109.926 105.247 109.564 105.102C109.202 104.958 108.815 104.888 108.425 104.895V104.866Z" fill="#FFF8EE"/>
<path d="M85.2643 29.1935C84.4914 29.1935 83.7502 29.5007 83.2037 30.0472C82.6572 30.5937 82.3502 31.3347 82.3502 32.1075V109.045C82.3502 109.429 82.426 109.809 82.5731 110.163C82.7203 110.517 82.936 110.839 83.2078 111.11C83.4797 111.381 83.8023 111.595 84.1572 111.741C84.5121 111.887 84.8923 111.961 85.276 111.96L108.589 111.843C109.359 111.84 110.098 111.532 110.642 110.986C111.186 110.439 111.491 109.7 111.491 108.929V32.1075C111.491 31.3347 111.184 30.5937 110.638 30.0472C110.091 29.5007 109.35 29.1935 108.577 29.1935H85.2643ZM88.1784 35.0216H105.663V106.044L88.1784 106.126V35.0216Z" fill="#DE901B"/>
<path d="M12.4061 169.011C11.6332 169.011 10.892 169.318 10.3455 169.865C9.79905 170.411 9.49203 171.152 9.49203 171.925C9.49203 180.137 16.8355 186.496 25.4612 186.496H162.54C171.165 186.496 178.509 180.137 178.509 171.925C178.509 171.152 178.202 170.411 177.655 169.865C177.109 169.318 176.368 169.011 175.595 169.011H12.4061ZM16.684 174.839H171.317C169.877 178.045 166.987 180.667 162.54 180.667H25.4612C21.0143 180.667 18.1235 178.045 16.684 174.839Z" fill="url(#paint1_linear_234_513)"/>
<path fill-rule="evenodd" clip-rule="evenodd" d="M94.2045 33.3085L94.0005 110.736H99.8286L100.033 33.3085H94.2045ZM32.8047 64.1041V70.2411H38.6329V64.1041H32.8047ZM44.461 64.1041V76.3901H50.2892V64.1041H44.461ZM137.712 64.1041V76.3901H143.54V64.1041H137.712ZM149.368 64.1041V70.2532H155.196V64.1041H149.368Z" fill="#DE901B"/>
</g>
<defs>
<linearGradient id="paint0_linear_234_513" x1="95.4575" y1="23.3061" x2="95.4575" y2="174.845" gradientUnits="userSpaceOnUse">
<stop stop-color="#DE901B"/>
<stop offset="1" stop-color="#B66C00"/>
</linearGradient>
<linearGradient id="paint1_linear_234_513" x1="94.0005" y1="169.011" x2="94.0005" y2="186.496" gradientUnits="userSpaceOnUse">
<stop stop-color="#DE901B"/>
<stop offset="1" stop-color="#B66C00"/>
</linearGradient>
<clipPath id="clip0_234_513">
<rect width="186.501" height="186.501" fill="white" transform="translate(0.749268)"/>
</clipPath>
</defs>
</svg>
