<svg width="34" height="44" viewBox="0 0 34 44" fill="none" xmlns="http://www.w3.org/2000/svg">
<path d="M1.64 43.0302H0.369999C0.169999 43.0302 0.0699997 42.9202 0.0699997 42.7202V40.2402C0.0699997 40.0302 0.169999 39.9302 0.369999 39.9302H1.62C1.69 39.9302 1.75 39.9502 1.8 40.0002C1.85 40.0502 1.87 40.1202 1.87 40.2002C1.87 40.2802 1.85 40.3502 1.8 40.3902C1.75 40.4302 1.69 40.4602 1.62 40.4602H0.629999V41.2002H1.49C1.56 41.2002 1.62 41.2202 1.67 41.2702C1.72 41.3202 1.74 41.3902 1.74 41.4702C1.74 41.5502 1.72 41.6202 1.67 41.6602C1.62 41.7002 1.56 41.7302 1.49 41.7302H0.619999V42.4702H1.61C1.68 42.4702 1.74 42.4902 1.79 42.5402C1.84 42.5902 1.86 42.6602 1.86 42.7402C1.86 42.8202 1.84 42.8902 1.79 42.9302C1.74 42.9802 1.68 43.0002 1.61 43.0002L1.64 43.0302Z" fill="white"/>
<path d="M3.63 42.9402C3.58 43.0002 3.51 43.0302 3.42 43.0302C3.33 43.0302 3.25 43.0002 3.2 42.9402C3.15 42.8802 3.13 42.8002 3.13 42.7102V40.3102C3.13 40.1902 3.16 40.0902 3.21 40.0302C3.26 39.9702 3.33 39.9302 3.41 39.9302C3.5 39.9302 3.58 39.9602 3.65 40.0102C3.71 40.0702 3.8 40.1802 3.91 40.3502L5.06 42.0602V40.2502C5.05 40.1602 5.07 40.0802 5.12 40.0202C5.17 39.9602 5.24 39.9302 5.33 39.9302C5.42 39.9302 5.5 39.9602 5.54 40.0202C5.59 40.0802 5.61 40.1602 5.61 40.2502V42.6502C5.61 42.7702 5.58 42.8702 5.53 42.9302C5.48 42.9902 5.41 43.0302 5.31 43.0302C5.21 43.0302 5.13 42.9902 5.05 42.9102C4.97 42.8302 4.84 42.6702 4.68 42.4302L3.68 40.9402V42.7102C3.69 42.8002 3.67 42.8802 3.62 42.9402H3.63Z" fill="white"/>
<path d="M8.41 43.0701C7.94 43.0701 7.57 42.9301 7.28 42.6401C6.99 42.3501 6.85 41.9701 6.85 41.4801C6.85 40.9901 6.99 40.6001 7.27 40.3201C7.55 40.0401 7.94 39.9001 8.43 39.9001C8.75 39.9001 8.99 39.9401 9.14 40.0301C9.25 40.0901 9.31 40.1801 9.31 40.2901C9.31 40.3701 9.29 40.4401 9.24 40.4901C9.19 40.5401 9.13 40.5601 9.06 40.5601C9.03 40.5601 8.96 40.5401 8.83 40.5201C8.71 40.4901 8.59 40.4801 8.46 40.4801C8.16 40.4801 7.91 40.5701 7.72 40.7501C7.53 40.9301 7.43 41.1801 7.43 41.5001C7.43 41.8201 7.52 42.0701 7.7 42.2501C7.88 42.4301 8.12 42.5201 8.42 42.5201C8.54 42.5201 8.65 42.5001 8.74 42.4701V41.6701C8.74 41.5801 8.76 41.5001 8.81 41.4401C8.86 41.3801 8.93 41.3501 9.03 41.3501C9.13 41.3501 9.19 41.3801 9.24 41.4401C9.29 41.5001 9.31 41.5801 9.31 41.6701V42.6101C9.31 42.7901 9.23 42.9201 9.06 42.9901C8.89 43.0601 8.67 43.1001 8.38 43.1001L8.41 43.0701Z" fill="white"/>
<path d="M12.18 43.0302H10.91C10.71 43.0302 10.61 42.9202 10.61 42.7202V40.2402C10.61 40.0302 10.71 39.9302 10.91 39.9302H12.16C12.23 39.9302 12.29 39.9502 12.34 40.0002C12.39 40.0502 12.41 40.1202 12.41 40.2002C12.41 40.2802 12.39 40.3502 12.34 40.3902C12.29 40.4302 12.23 40.4602 12.16 40.4602H11.17V41.2002H12.03C12.1 41.2002 12.16 41.2202 12.21 41.2702C12.26 41.3202 12.28 41.3902 12.28 41.4702C12.28 41.5502 12.26 41.6202 12.21 41.6602C12.16 41.7002 12.1 41.7302 12.03 41.7302H11.16V42.4702H12.15C12.22 42.4702 12.28 42.4902 12.33 42.5402C12.38 42.5902 12.4 42.6602 12.4 42.7402C12.4 42.8202 12.38 42.8902 12.33 42.9302C12.28 42.9802 12.22 43.0002 12.15 43.0002L12.18 43.0302Z" fill="white"/>
<path d="M14.16 42.9402C14.11 43.0002 14.04 43.0302 13.95 43.0302C13.86 43.0302 13.78 43.0002 13.73 42.9402C13.68 42.8802 13.66 42.8002 13.66 42.7102V40.3102C13.66 40.1902 13.69 40.0902 13.74 40.0302C13.79 39.9702 13.86 39.9302 13.94 39.9302C14.03 39.9302 14.11 39.9602 14.18 40.0102C14.24 40.0702 14.33 40.1802 14.44 40.3502L15.59 42.0602V40.2502C15.58 40.1602 15.6 40.0802 15.65 40.0202C15.7 39.9602 15.77 39.9302 15.86 39.9302C15.95 39.9302 16.03 39.9602 16.07 40.0202C16.12 40.0802 16.14 40.1602 16.14 40.2502V42.6502C16.14 42.7702 16.11 42.8702 16.06 42.9302C16.01 42.9902 15.94 43.0302 15.84 43.0302C15.74 43.0302 15.66 42.9902 15.58 42.9102C15.5 42.8302 15.37 42.6702 15.21 42.4302L14.21 40.9402V42.7102C14.22 42.8002 14.2 42.8802 14.15 42.9402H14.16Z" fill="white"/>
<path d="M18.05 42.9402C18 43.0002 17.93 43.0302 17.84 43.0302C17.75 43.0302 17.67 43.0002 17.62 42.9402C17.57 42.8802 17.55 42.8002 17.55 42.7102V40.2502C17.55 40.1602 17.57 40.0802 17.62 40.0202C17.67 39.9602 17.74 39.9302 17.84 39.9302C17.94 39.9302 18.01 39.9602 18.05 40.0202C18.1 40.0802 18.12 40.1602 18.12 40.2502V41.2102H19.5V40.2502C19.5 40.1602 19.53 40.0802 19.58 40.0202C19.63 39.9602 19.7 39.9302 19.8 39.9302C19.9 39.9302 19.97 39.9602 20.01 40.0202C20.06 40.0802 20.08 40.1602 20.08 40.2502V42.7102C20.08 42.8002 20.06 42.8802 20.01 42.9402C19.96 43.0002 19.89 43.0302 19.8 43.0302C19.71 43.0302 19.63 43.0002 19.58 42.9402C19.53 42.8802 19.51 42.8002 19.51 42.7102V41.7502H18.13V42.7102C18.13 42.8002 18.11 42.8802 18.06 42.9402H18.05Z" fill="white"/>
<path d="M23.78 42.6402C23.82 42.7402 23.81 42.8302 23.76 42.9102C23.71 42.9902 23.63 43.0302 23.52 43.0302C23.44 43.0302 23.39 43.0102 23.35 42.9702C23.31 42.9302 23.28 42.8602 23.24 42.7602L23.09 42.3202C23.09 42.3202 23.06 42.3202 23.04 42.3202H21.96L21.81 42.7602C21.78 42.8602 21.74 42.9202 21.7 42.9702C21.66 43.0102 21.6 43.0302 21.53 43.0302C21.42 43.0302 21.34 42.9902 21.29 42.9102C21.24 42.8302 21.23 42.7402 21.27 42.6402L22.01 40.5502C22.09 40.3102 22.17 40.1502 22.23 40.0602C22.3 39.9702 22.4 39.9302 22.53 39.9302C22.66 39.9302 22.76 39.9702 22.83 40.0602C22.89 40.1502 22.97 40.3102 23.05 40.5602L23.79 42.6402H23.78ZM22.14 41.7902H22.9L22.53 40.7102L22.16 41.7902H22.14Z" fill="white"/>
<path d="M25.46 42.9402C25.41 43.0002 25.34 43.0302 25.25 43.0302C25.16 43.0302 25.08 43.0002 25.03 42.9402C24.98 42.8802 24.96 42.8002 24.96 42.7102V40.2402C24.96 40.0302 25.06 39.9302 25.26 39.9302H26.03C26.39 39.9302 26.67 40.0102 26.87 40.1802C27.07 40.3502 27.18 40.6002 27.18 40.9402C27.18 41.1702 27.13 41.3702 27.03 41.5202C26.93 41.6702 26.8 41.7902 26.64 41.8602L27.02 42.5002C27.08 42.5902 27.1 42.6802 27.1 42.7602C27.1 42.8402 27.07 42.9002 27.01 42.9602C26.95 43.0102 26.87 43.0402 26.79 43.0402C26.73 43.0402 26.68 43.0202 26.64 42.9802C26.6 42.9402 26.55 42.8702 26.51 42.7902L26.01 41.9502H25.54V42.7202C25.54 42.8102 25.52 42.8902 25.47 42.9502L25.46 42.9402ZM25.53 40.4402V41.4102H26.13C26.29 41.4102 26.41 41.3702 26.49 41.2802C26.57 41.1902 26.62 41.0702 26.62 40.9302C26.62 40.7902 26.57 40.6602 26.46 40.5702C26.36 40.4902 26.22 40.4402 26.05 40.4402H25.53Z" fill="white"/>
<path d="M28.92 42.9402C28.87 43.0002 28.8 43.0302 28.71 43.0302C28.62 43.0302 28.54 43.0002 28.49 42.9402C28.44 42.8802 28.42 42.8002 28.42 42.7102V40.2502C28.42 40.1602 28.44 40.0802 28.49 40.0202C28.54 39.9602 28.61 39.9302 28.71 39.9302C28.81 39.9302 28.88 39.9602 28.92 40.0202C28.97 40.0802 28.99 40.1602 28.99 40.2502V42.7102C28.99 42.8002 28.97 42.8802 28.92 42.9402Z" fill="white"/>
<path d="M32.69 42.6402C32.73 42.7402 32.72 42.8302 32.67 42.9102C32.62 42.9902 32.54 43.0302 32.43 43.0302C32.35 43.0302 32.3 43.0102 32.26 42.9702C32.22 42.9302 32.19 42.8602 32.15 42.7602L32 42.3202C32 42.3202 31.97 42.3202 31.95 42.3202H30.87L30.72 42.7602C30.69 42.8602 30.65 42.9202 30.61 42.9702C30.57 43.0102 30.51 43.0302 30.44 43.0302C30.33 43.0302 30.25 42.9902 30.2 42.9102C30.15 42.8302 30.14 42.7402 30.18 42.6402L30.92 40.5502C31 40.3102 31.08 40.1502 31.14 40.0602C31.21 39.9702 31.31 39.9302 31.44 39.9302C31.57 39.9302 31.67 39.9702 31.74 40.0602C31.8 40.1502 31.88 40.3102 31.96 40.5602L32.7 42.6402H32.69ZM31.05 41.7902H31.81L31.44 40.7102L31.07 41.7902H31.05Z" fill="white"/>
<path d="M32.03 34.0901L22.02 28.0801C26.96 27.0501 30.25 23.9001 31.88 20.0701C32.65 18.2501 33.03 16.2801 33.03 14.3201C33.03 12.3401 32.64 10.3701 31.86 8.55009C29.83 3.80009 25.23 0.0900879 18.06 0.0900879H1.85C0.83 0.0900879 0 0.920086 0 1.94009C0 2.96009 0.83 3.79009 1.85 3.79009H18.05C23.51 3.79009 26.96 6.52009 28.45 10.0001C29.04 11.3701 29.33 12.8501 29.33 14.3201C29.33 15.8001 29.04 17.2801 28.47 18.6401C27.02 22.0701 23.65 24.7401 18.38 24.7401H15.95C14.93 24.7401 14.1 25.5701 14.1 26.5901C14.1 27.3201 14.52 27.9501 15.13 28.2501L30.13 37.2601C31 37.7801 32.14 37.5001 32.66 36.6201C33.18 35.7501 32.9 34.6101 32.02 34.0901H32.03Z" fill="white"/>
<path d="M18.25 33.8001H3.81L3.73 15.9701H18.25C19.27 15.9701 20.1 15.1401 20.1 14.1201C20.1 13.1001 19.27 12.2701 18.25 12.2701H1.88C0.859998 12.2701 0.0299988 13.1001 0.0299988 14.1201C0.0299988 14.1801 0.0299988 14.2401 0.0299988 14.2901L0.119998 35.6601C0.119998 36.6801 0.949998 37.5001 1.96 37.5001H18.24C19.26 37.5001 20.09 36.6701 20.09 35.6501C20.09 34.6301 19.26 33.8001 18.24 33.8001H18.25Z" fill="white"/>
<path d="M1.85 6.06006C0.83 6.06006 0 6.89006 0 7.91006C0 8.93006 0.83 9.76006 1.85 9.76006H18.05C20.44 9.76006 21.95 10.9101 22.59 12.3901C22.84 12.9701 22.97 13.6101 22.97 14.2401C22.97 14.8801 22.85 15.5101 22.59 16.0901C21.96 17.5501 20.45 18.6901 18.04 18.6901H9.1C8.08 18.6901 7.25 19.5201 7.25 20.5401V30.1301C7.25 31.1501 8.08 31.9801 9.1 31.9801C10.12 31.9801 10.95 31.1501 10.95 30.1301V22.3901H18.04C22.15 22.3901 24.8 20.2601 25.97 17.5501C26.43 16.5001 26.65 15.3701 26.65 14.2401C26.65 13.1101 26.42 11.9701 25.96 10.9201C24.78 8.19006 22.12 6.06006 18.03 6.06006H1.83H1.85Z" fill="white"/>
</svg>
