<svg width="67" height="52" viewBox="0 0 67 52" fill="none" xmlns="http://www.w3.org/2000/svg">
<path d="M0 41.09V31.85L3.28999 38.01L6.58 31.85V41.09H6.2V33.37L3.28999 38.83L0.37999 33.37V41.09H0Z" fill="white"/>
<path d="M12.26 36.62C12.26 35.99 12.38 35.4 12.62 34.84C12.86 34.28 13.19 33.8 13.6 33.39C14.02 32.98 14.5 32.65 15.06 32.41C15.62 32.17 16.21 32.05 16.84 32.05C17.47 32.05 18.06 32.17 18.62 32.41C19.18 32.65 19.66 32.98 20.07 33.39C20.48 33.8 20.81 34.29 21.05 34.84C21.29 35.4 21.41 35.99 21.41 36.62C21.41 37.25 21.29 37.8401 21.05 38.4001C20.81 38.9601 20.48 39.4401 20.07 39.8601C19.66 40.2801 19.17 40.6 18.62 40.84C18.06 41.08 17.47 41.2 16.84 41.2C16.21 41.2 15.62 41.08 15.06 40.84C14.5 40.6 14.02 40.2701 13.6 39.8601C13.18 39.4401 12.86 38.9601 12.62 38.4001C12.38 37.8401 12.26 37.25 12.26 36.62ZM12.64 36.62C12.64 37.2 12.75 37.74 12.97 38.25C13.19 38.76 13.49 39.2101 13.87 39.5801C14.25 39.9601 14.69 40.26 15.2 40.48C15.71 40.7 16.25 40.81 16.83 40.81C17.41 40.81 17.95 40.7 18.46 40.48C18.97 40.26 19.41 39.9601 19.79 39.5801C20.17 39.2001 20.47 38.76 20.69 38.25C20.91 37.74 21.02 37.2 21.02 36.62C21.02 36.04 20.91 35.5 20.69 34.99C20.47 34.48 20.17 34.04 19.79 33.66C19.41 33.28 18.97 32.98 18.46 32.76C17.95 32.54 17.41 32.43 16.83 32.43C16.25 32.43 15.71 32.54 15.2 32.76C14.69 32.98 14.25 33.28 13.87 33.66C13.49 34.04 13.19 34.48 12.97 34.99C12.75 35.5 12.64 36.04 12.64 36.62Z" fill="white"/>
<path d="M27.48 32.16V40.71H31.79V41.09H27.1V32.16H27.48Z" fill="white"/>
<path d="M38.65 32.11C39.37 32.11 40 32.24 40.54 32.5C41.08 32.76 41.53 33.1 41.89 33.52C42.25 33.94 42.52 34.42 42.7 34.96C42.88 35.5 42.97 36.06 42.97 36.63C42.97 37.2 42.88 37.74 42.7 38.28C42.52 38.82 42.25 39.3 41.89 39.72C41.53 40.14 41.08 40.48 40.54 40.74C40 41 39.37 41.13 38.65 41.13C38.51 41.13 38.33 41.13 38.11 41.13C37.9 41.13 37.71 41.12 37.54 41.1V32.17C37.71 32.15 37.9 32.14 38.11 32.13C38.32 32.13 38.5 32.12 38.65 32.12M38.65 40.74C39.3 40.74 39.88 40.62 40.37 40.39C40.86 40.16 41.27 39.85 41.6 39.46C41.93 39.07 42.17 38.63 42.34 38.14C42.51 37.65 42.59 37.14 42.59 36.62C42.59 36.1 42.51 35.6 42.34 35.1C42.17 34.61 41.93 34.17 41.6 33.78C41.27 33.39 40.86 33.08 40.37 32.84C39.88 32.6 39.3 32.48 38.65 32.48C38.56 32.48 38.44 32.48 38.29 32.48C38.15 32.48 38.02 32.49 37.92 32.5V40.72C38.03 40.72 38.16 40.73 38.3 40.73H38.65V40.74Z" fill="white"/>
<path d="M51.86 31.9401L55.28 41.0201L54.92 41.1501L53.99 38.6801H49.73L48.8 41.1501L48.44 41.0201L51.86 31.9401ZM49.87 38.2901H53.84L51.86 33.0201L49.87 38.2901Z" fill="white"/>
<path d="M60.95 41.09V32.16C61.12 32.14 61.29 32.13 61.46 32.13C61.63 32.13 61.79 32.13 61.93 32.13C62.65 32.13 63.28 32.22 63.82 32.39C64.36 32.56 64.81 32.79 65.17 33.07C65.53 33.35 65.8 33.67 65.98 34.03C66.16 34.39 66.25 34.75 66.25 35.11C66.25 35.38 66.2 35.65 66.11 35.91C66.02 36.17 65.88 36.42 65.69 36.66C65.5 36.89 65.27 37.11 64.99 37.3C64.71 37.49 64.38 37.65 64.01 37.78L66.45 40.98L66.14 41.21L63.61 37.89C63.13 38.02 62.56 38.08 61.93 38.08C61.84 38.08 61.74 38.08 61.64 38.08C61.54 38.08 61.44 38.07 61.33 38.06V41.1H60.95V41.09ZM61.93 32.5H61.64C61.54 32.5 61.44 32.5 61.33 32.51V37.66C61.43 37.66 61.53 37.67 61.64 37.68C61.74 37.68 61.84 37.68 61.93 37.68C62.58 37.68 63.16 37.61 63.65 37.46C64.14 37.31 64.55 37.12 64.88 36.87C65.21 36.63 65.45 36.35 65.62 36.04C65.79 35.73 65.87 35.41 65.87 35.09C65.87 34.77 65.79 34.45 65.62 34.13C65.45 33.82 65.21 33.54 64.88 33.29C64.55 33.05 64.14 32.85 63.65 32.7C63.16 32.55 62.58 32.48 61.93 32.48" fill="white"/>
<path d="M12.03 49.7C11.96 49.7 11.89 49.71 11.83 49.72C11.76 49.72 11.7 49.72 11.64 49.72C11.3 49.72 10.99 49.67 10.73 49.57C10.47 49.47 10.25 49.35 10.07 49.19C9.88998 49.03 9.75998 48.85 9.66998 48.65C9.57998 48.45 9.53998 48.24 9.53998 48.02C9.53998 47.7 9.58997 47.43 9.68997 47.21C9.78997 46.99 9.91998 46.81 10.07 46.68C10.22 46.55 10.38 46.45 10.55 46.39C10.72 46.33 10.88 46.3 11.02 46.3C11.24 46.3 11.44 46.34 11.61 46.42C11.78 46.5 11.93 46.61 12.05 46.75C12.17 46.89 12.26 47.06 12.32 47.25C12.38 47.44 12.41 47.65 12.41 47.86H9.73999C9.73999 47.86 9.73999 47.91 9.73999 47.93V48C9.73999 48.19 9.77999 48.37 9.85999 48.55C9.93999 48.73 10.06 48.89 10.22 49.03C10.38 49.17 10.58 49.29 10.82 49.37C11.06 49.46 11.35 49.5 11.67 49.5C11.79 49.5 11.92 49.5 12.05 49.48V49.67L12.03 49.7ZM11.01 46.49C10.88 46.49 10.74 46.51 10.61 46.56C10.47 46.61 10.35 46.68 10.23 46.78C10.11 46.88 10.01 47 9.92999 47.15C9.84999 47.3 9.78997 47.47 9.74997 47.68H12.21C12.21 47.55 12.18 47.42 12.13 47.28C12.08 47.14 12 47.01 11.9 46.89C11.8 46.77 11.68 46.68 11.53 46.6C11.38 46.53 11.21 46.49 11.02 46.49" fill="white"/>
<path d="M15.32 46.37V46.64C15.46 46.53 15.63 46.45 15.81 46.39C15.99 46.33 16.18 46.3 16.37 46.3C16.65 46.3 16.9 46.37 17.14 46.51C17.38 46.65 17.55 46.86 17.65 47.13C17.67 47.18 17.69 47.24 17.7 47.3C17.71 47.36 17.72 47.45 17.72 47.57V49.69H17.53V47.57C17.53 47.39 17.49 47.24 17.42 47.1C17.35 46.97 17.26 46.85 17.15 46.76C17.04 46.67 16.91 46.6 16.77 46.56C16.63 46.51 16.49 46.49 16.35 46.49C16.16 46.49 15.97 46.52 15.78 46.59C15.59 46.66 15.43 46.75 15.3 46.87V49.69H15.11V46.36H15.3L15.32 46.37Z" fill="white"/>
<path d="M22.82 49.7C22.71 49.71 22.62 49.72 22.53 49.72C22.18 49.72 21.87 49.67 21.61 49.57C21.35 49.47 21.12 49.34 20.95 49.19C20.77 49.03 20.64 48.85 20.56 48.65C20.47 48.45 20.43 48.24 20.43 48.02C20.43 47.8 20.47 47.6 20.56 47.4C20.65 47.2 20.78 47.01 20.95 46.86C21.13 46.7 21.35 46.5799 21.61 46.4799C21.87 46.3799 22.18 46.33 22.53 46.33C22.6 46.33 22.68 46.33 22.76 46.33C22.84 46.33 22.93 46.33 23.01 46.35V50.07C23.01 50.26 22.98 50.44 22.92 50.61C22.86 50.78 22.78 50.94 22.67 51.07C22.56 51.2 22.43 51.31 22.28 51.39C22.13 51.47 21.96 51.51 21.77 51.51C21.58 51.51 21.43 51.47 21.27 51.39C21.12 51.31 20.98 51.21 20.85 51.09L20.97 50.95C21.09 51.06 21.21 51.15 21.34 51.22C21.47 51.29 21.61 51.32 21.77 51.32C21.93 51.32 22.08 51.28 22.2 51.21C22.33 51.14 22.44 51.05 22.53 50.93C22.62 50.81 22.69 50.68 22.74 50.53C22.79 50.38 22.81 50.22 22.81 50.06V49.69L22.82 49.7ZM22.53 46.51C22.21 46.51 21.93 46.55 21.69 46.64C21.45 46.73 21.25 46.8399 21.09 46.9799C20.93 47.1199 20.81 47.28 20.73 47.46C20.65 47.64 20.61 47.83 20.61 48.02C20.61 48.21 20.65 48.4 20.73 48.58C20.81 48.76 20.93 48.92 21.09 49.06C21.25 49.2 21.45 49.32 21.69 49.4C21.93 49.49 22.21 49.53 22.53 49.53C22.58 49.53 22.62 49.53 22.67 49.53C22.72 49.53 22.77 49.53 22.82 49.53V46.53C22.77 46.53 22.72 46.53 22.67 46.53H22.53V46.51Z" fill="white"/>
<path d="M28.24 49.7C28.17 49.7 28.1 49.71 28.04 49.72C27.97 49.72 27.91 49.72 27.85 49.72C27.51 49.72 27.2 49.67 26.94 49.57C26.68 49.47 26.46 49.35 26.28 49.19C26.1 49.03 25.97 48.85 25.88 48.65C25.79 48.45 25.75 48.24 25.75 48.02C25.75 47.7 25.8 47.43 25.9 47.21C26 46.99 26.13 46.81 26.28 46.68C26.43 46.55 26.59 46.45 26.76 46.39C26.93 46.33 27.09 46.3 27.23 46.3C27.45 46.3 27.65 46.34 27.82 46.42C27.99 46.5 28.14 46.61 28.26 46.75C28.38 46.89 28.47 47.06 28.53 47.25C28.59 47.44 28.62 47.65 28.62 47.86H25.95C25.95 47.86 25.95 47.91 25.95 47.93V48C25.95 48.19 25.99 48.37 26.07 48.55C26.15 48.73 26.27 48.89 26.43 49.03C26.59 49.17 26.79 49.29 27.03 49.37C27.27 49.46 27.56 49.5 27.88 49.5C28 49.5 28.13 49.5 28.26 49.48V49.67L28.24 49.7ZM27.22 46.49C27.09 46.49 26.95 46.51 26.82 46.56C26.68 46.61 26.56 46.68 26.44 46.78C26.32 46.88 26.22 47 26.14 47.15C26.06 47.3 26 47.47 25.96 47.68H28.42C28.42 47.55 28.39 47.42 28.34 47.28C28.29 47.14 28.21 47.01 28.11 46.89C28.01 46.77 27.89 46.68 27.74 46.6C27.59 46.53 27.42 46.49 27.22 46.49Z" fill="white"/>
<path d="M31.54 46.37V46.64C31.68 46.53 31.85 46.45 32.03 46.39C32.21 46.33 32.4 46.3 32.59 46.3C32.87 46.3 33.12 46.37 33.36 46.51C33.6 46.65 33.77 46.86 33.87 47.13C33.89 47.18 33.91 47.24 33.92 47.3C33.93 47.36 33.94 47.45 33.94 47.57V49.69H33.75V47.57C33.75 47.39 33.71 47.24 33.64 47.1C33.57 46.96 33.48 46.85 33.37 46.76C33.26 46.67 33.13 46.6 32.99 46.56C32.85 46.51 32.71 46.49 32.57 46.49C32.38 46.49 32.19 46.52 32 46.59C31.81 46.66 31.65 46.75 31.52 46.87V49.69H31.33V46.36H31.52L31.54 46.37Z" fill="white"/>
<path d="M36.93 44.16V46.64C37.07 46.53 37.24 46.45 37.42 46.39C37.6 46.33 37.78 46.31 37.97 46.31C38.11 46.31 38.24 46.33 38.37 46.36C38.5 46.39 38.62 46.44 38.74 46.51C38.85 46.58 38.96 46.67 39.04 46.77C39.13 46.88 39.2 47 39.25 47.14C39.3 47.28 39.33 47.42 39.33 47.57V49.69H39.14V47.58C39.14 47.45 39.12 47.32 39.07 47.2C38.98 46.96 38.83 46.78 38.62 46.66C38.41 46.54 38.19 46.49 37.95 46.49C37.76 46.49 37.57 46.52 37.39 46.59C37.21 46.66 37.05 46.75 36.92 46.87V49.69H36.73V44.15H36.92L36.93 44.16Z" fill="white"/>
<path d="M42.39 46.7701C42.54 46.6301 42.71 46.5101 42.9 46.4301C43.09 46.3501 43.3 46.3101 43.53 46.3101C43.65 46.3101 43.78 46.3301 43.91 46.3701C44.04 46.4101 44.16 46.4801 44.27 46.5801C44.38 46.6801 44.47 46.8101 44.54 46.9701C44.61 47.1301 44.65 47.3401 44.65 47.5801V49.7001H44.46V49.3801C44.31 49.5201 44.14 49.6101 43.95 49.6701C43.76 49.7301 43.57 49.7601 43.37 49.7601C43.2 49.7601 43.03 49.7301 42.87 49.6701C42.71 49.6101 42.57 49.5301 42.45 49.4201C42.33 49.3101 42.23 49.1901 42.16 49.0401C42.09 48.8901 42.05 48.7201 42.05 48.5301C42.05 48.3401 42.09 48.1801 42.16 48.0301C42.23 47.8801 42.33 47.7501 42.45 47.6501C42.57 47.5501 42.71 47.4601 42.87 47.4101C43.03 47.3501 43.2 47.3301 43.37 47.3301C43.6 47.3301 43.81 47.3701 43.99 47.4501C44.17 47.5301 44.33 47.6301 44.46 47.7601V47.5901C44.46 47.3801 44.43 47.2101 44.37 47.0701C44.31 46.9301 44.23 46.8201 44.14 46.7301C44.05 46.6501 43.95 46.5901 43.84 46.5501C43.73 46.5101 43.63 46.5001 43.53 46.5001C43.32 46.5001 43.13 46.5401 42.97 46.6101C42.8 46.6801 42.66 46.7801 42.53 46.9001L42.39 46.7801V46.7701ZM43.37 49.5701C43.57 49.5701 43.77 49.5301 43.96 49.4601C44.15 49.3901 44.32 49.2701 44.45 49.1001V48.0201C44.31 47.8501 44.15 47.7201 43.97 47.6401C43.79 47.5601 43.58 47.5101 43.36 47.5101C43.21 47.5101 43.07 47.5301 42.93 47.5801C42.79 47.6301 42.67 47.7001 42.57 47.7801C42.47 47.8701 42.38 47.9801 42.32 48.1001C42.26 48.2301 42.23 48.3701 42.23 48.5301C42.23 48.6901 42.26 48.8301 42.32 48.9601C42.38 49.0901 42.46 49.2001 42.57 49.2901C42.67 49.3801 42.79 49.4501 42.93 49.5001C43.07 49.5501 43.21 49.5701 43.36 49.5701" fill="white"/>
<path d="M48.68 46.49C48.49 46.49 48.3 46.52 48.11 46.59C47.92 46.66 47.76 46.75 47.63 46.87V49.69H47.44V46.36H47.63V46.63C47.77 46.52 47.94 46.44 48.12 46.38C48.3 46.32 48.49 46.29 48.68 46.29V46.48V46.49Z" fill="white"/>
<path d="M51.28 45.35H51.59V45.66H51.28V45.35ZM51.53 49.7H51.34V46.37H51.53V49.7Z" fill="white"/>
<path d="M54.65 46.7701C54.8 46.6301 54.97 46.5101 55.16 46.4301C55.35 46.3501 55.56 46.3101 55.79 46.3101C55.91 46.3101 56.04 46.3301 56.17 46.3701C56.3 46.4101 56.42 46.4801 56.53 46.5801C56.64 46.6801 56.73 46.8101 56.8 46.9701C56.87 47.1301 56.91 47.3401 56.91 47.5801V49.7001H56.72V49.3801C56.57 49.5201 56.4 49.6101 56.21 49.6701C56.02 49.7301 55.83 49.7601 55.63 49.7601C55.46 49.7601 55.29 49.7301 55.13 49.6701C54.97 49.6101 54.83 49.5301 54.71 49.4201C54.59 49.3101 54.49 49.1901 54.42 49.0401C54.35 48.8901 54.31 48.7201 54.31 48.5301C54.31 48.3401 54.35 48.1801 54.42 48.0301C54.49 47.8801 54.59 47.7501 54.71 47.6501C54.83 47.5501 54.97 47.4601 55.13 47.4101C55.29 47.3501 55.46 47.3301 55.63 47.3301C55.86 47.3301 56.07 47.3701 56.25 47.4501C56.43 47.5301 56.59 47.6301 56.72 47.7601V47.5901C56.72 47.3801 56.69 47.2101 56.63 47.0701C56.57 46.9301 56.49 46.8201 56.4 46.7301C56.31 46.6501 56.21 46.5901 56.1 46.5501C55.99 46.5101 55.89 46.5001 55.79 46.5001C55.58 46.5001 55.39 46.5401 55.23 46.6101C55.06 46.6801 54.92 46.7801 54.79 46.9001L54.65 46.7801V46.7701ZM55.64 49.5701C55.84 49.5701 56.04 49.5301 56.23 49.4601C56.42 49.3901 56.59 49.2701 56.72 49.1001V48.0201C56.58 47.8501 56.42 47.7201 56.24 47.6401C56.06 47.5601 55.85 47.5101 55.63 47.5101C55.48 47.5101 55.34 47.5301 55.2 47.5801C55.06 47.6301 54.94 47.7001 54.84 47.7801C54.74 47.8701 54.65 47.9801 54.59 48.1001C54.53 48.2301 54.5 48.3701 54.5 48.5301C54.5 48.6901 54.53 48.8301 54.59 48.9601C54.65 49.0901 54.73 49.2001 54.84 49.2901C54.94 49.3801 55.06 49.4501 55.2 49.5001C55.34 49.5501 55.48 49.5701 55.63 49.5701" fill="white"/>
<path d="M33.22 19.75L49.51 10.59V0.0100098L33.22 9.17001L17.55 0.350008V0.360008V1.90001L33.22 10.72L48.15 2.32001V9.80001L33.22 18.2L16.94 9.04001V18.84L33.22 28L48.89 19.18V17.63L33.22 26.44L18.29 18.04V11.35L33.22 19.75Z" fill="white"/>
</svg>
