<svg width="107" height="141" viewBox="0 0 107 141" fill="none" xmlns="http://www.w3.org/2000/svg">
<path d="M2.81992 140.647C2.6615 140.84 2.40803 140.968 2.12286 140.968C1.8377 140.968 1.58422 140.872 1.39411 140.647C1.23569 140.454 1.14062 140.165 1.14062 139.877V131.594C1.14062 130.887 1.45748 130.534 2.12286 130.534H4.65765C5.83 130.534 6.78055 130.823 7.44593 131.369C8.11131 131.915 8.45985 132.782 8.45985 133.905C8.45985 134.676 8.30142 135.35 7.98457 135.864C7.66772 136.377 7.22413 136.762 6.71717 136.987L7.98457 139.138C8.17468 139.459 8.26975 139.748 8.26975 140.005C8.26975 140.262 8.17467 140.486 7.95288 140.679C7.73108 140.84 7.5093 140.936 7.22414 140.936C7.03403 140.936 6.87559 140.872 6.71717 140.711C6.59043 140.583 6.432 140.358 6.27358 140.069L4.62596 137.244H3.04172V139.812C3.04172 140.133 2.97835 140.39 2.78824 140.583L2.81992 140.647ZM3.07341 132.3V135.575H5.06956C5.57652 135.575 5.98842 135.446 6.27358 135.125C6.55874 134.804 6.68549 134.451 6.68549 133.937C6.68549 133.424 6.49538 133.006 6.14685 132.717C5.79832 132.428 5.35473 132.3 4.7844 132.3H3.07341Z" fill="#F1F1F1"/>
<path d="M22.718 140.968H18.5039C17.8385 140.968 17.5217 140.615 17.5217 139.909V131.594C17.5217 130.887 17.8385 130.534 18.5039 130.534H22.6546C22.9081 130.534 23.0982 130.631 23.2566 130.791C23.4151 130.952 23.5101 131.176 23.5101 131.465C23.5101 131.754 23.4467 131.947 23.2883 132.107C23.1299 132.268 22.9398 132.364 22.6863 132.364H19.4228V134.868H22.3061C22.5596 134.868 22.7497 134.965 22.9081 135.125C23.0665 135.286 23.1616 135.51 23.1616 135.799C23.1616 136.088 23.0982 136.281 22.9398 136.441C22.7814 136.602 22.5912 136.698 22.3378 136.698H19.4544V139.202H22.718C22.9715 139.202 23.1616 139.267 23.32 139.459C23.4784 139.62 23.5735 139.844 23.5735 140.133C23.5735 140.422 23.5101 140.615 23.3517 140.775C23.1933 140.936 23.0032 141 22.7497 141L22.718 140.968Z" fill="#F1F1F1"/>
<path d="M34.1881 140.647C34.0297 140.84 33.7762 140.968 33.491 140.968C33.2059 140.968 32.9524 140.872 32.7623 140.647C32.6038 140.454 32.5088 140.165 32.5088 139.877V131.818C32.5088 131.401 32.6038 131.08 32.7623 130.887C32.9207 130.663 33.1425 130.566 33.4277 130.566C33.7445 130.566 33.998 130.663 34.2198 130.855C34.4416 131.048 34.7267 131.401 35.107 131.979L38.9092 137.726V131.658C38.8775 131.337 38.9408 131.08 39.0993 130.887C39.2577 130.695 39.5112 130.566 39.828 130.566C40.1449 130.566 40.3666 130.663 40.5251 130.887C40.6835 131.112 40.7786 131.369 40.7786 131.658V139.716C40.7786 140.133 40.6835 140.454 40.5251 140.647C40.3666 140.872 40.1132 140.968 39.7963 140.968C39.4795 140.968 39.1943 140.84 38.9408 140.583C38.6873 140.326 38.2755 139.78 37.7368 138.978L34.4099 133.969V139.909C34.4416 140.23 34.3782 140.486 34.2198 140.679L34.1881 140.647Z" fill="#F1F1F1"/>
<path d="M54.2446 140.647C54.0862 140.84 53.8644 140.968 53.5475 140.968C53.2307 140.968 53.0089 140.872 52.8188 140.647C52.6604 140.454 52.5653 140.165 52.5653 139.877V132.364H50.1572C49.9354 132.364 49.7454 132.268 49.5552 132.107C49.3651 131.947 49.3018 131.722 49.3018 131.465C49.3018 131.208 49.3968 130.984 49.5552 130.823C49.7137 130.631 49.9354 130.566 50.1572 130.566H56.8428C57.0646 130.566 57.2864 130.663 57.4448 130.823C57.6032 131.016 57.6983 131.208 57.6983 131.465C57.6983 131.722 57.6032 131.915 57.4448 132.107C57.2864 132.268 57.0962 132.364 56.8428 132.364H54.4664V139.877C54.4664 140.198 54.3714 140.454 54.2129 140.647H54.2446Z" fill="#F1F1F1"/>
<path d="M67.9323 140.647C67.7739 140.84 67.5204 140.968 67.2353 140.968C66.9501 140.968 66.6966 140.872 66.5065 140.647C66.3481 140.454 66.2531 140.165 66.2531 139.877V131.626C66.2531 131.305 66.3164 131.048 66.5065 130.855C66.665 130.663 66.9184 130.534 67.2353 130.534C67.5521 130.534 67.7739 130.631 67.9323 130.855C68.0908 131.08 68.1858 131.337 68.1858 131.626V134.836H72.7485V131.626C72.7485 131.305 72.8435 131.048 73.0019 130.855C73.1604 130.663 73.4138 130.534 73.7307 130.534C74.0475 130.534 74.2693 130.631 74.4278 130.855C74.5862 131.08 74.6813 131.337 74.6813 131.626V139.877C74.6813 140.198 74.6179 140.454 74.4278 140.647C74.2377 140.84 74.0159 140.968 73.7307 140.968C73.4455 140.968 73.192 140.872 73.0019 140.647C72.8118 140.422 72.7485 140.165 72.7485 139.877V136.666H68.1858V139.877C68.1858 140.198 68.1225 140.454 67.9323 140.647Z" fill="#F1F1F1"/>
<path d="M91.8228 139.652C91.9496 140.005 91.9179 140.294 91.7595 140.583C91.5693 140.84 91.3159 140.968 90.9673 140.968C90.7139 140.968 90.5237 140.904 90.397 140.743C90.2703 140.615 90.1435 140.358 90.0485 140.037L89.5415 138.56C89.5415 138.56 89.4465 138.56 89.3831 138.56H85.8027L85.3274 140.005C85.2324 140.326 85.1056 140.551 84.9789 140.711C84.8521 140.84 84.662 140.936 84.4086 140.936C84.0283 140.936 83.7749 140.808 83.6164 140.551C83.4263 140.294 83.4263 139.973 83.553 139.62L85.9928 132.621C86.278 131.818 86.5314 131.273 86.7532 130.984C86.975 130.695 87.2919 130.534 87.7355 130.534C88.179 130.534 88.4959 130.695 88.7177 130.984C88.9078 131.273 89.1613 131.851 89.4464 132.685L91.8862 139.652H91.8228ZM86.4047 136.795H88.9078L87.6721 133.167L86.4364 136.795H86.4047Z" fill="#F1F1F1"/>
<path d="M105.606 140.968H101.645C100.98 140.968 100.663 140.615 100.663 139.909V131.562C100.663 131.305 100.758 131.048 100.948 130.855C101.138 130.663 101.36 130.534 101.613 130.534C101.867 130.534 102.089 130.631 102.279 130.823C102.469 131.016 102.564 131.273 102.564 131.53V139.138H105.574C105.828 139.138 106.018 139.202 106.176 139.395C106.334 139.555 106.43 139.78 106.43 140.069C106.43 140.358 106.366 140.551 106.208 140.711C106.049 140.872 105.859 140.936 105.606 140.936V140.968Z" fill="#F1F1F1"/>
<path d="M103.736 111.625L71.3228 91.8811C87.3237 88.4781 98.0015 78.1728 103.261 65.5881C105.764 59.6168 107 53.1639 107 46.711C107 40.2261 105.733 33.7411 103.198 27.7698C96.6074 12.1994 81.7154 0 58.4904 0H5.98845C2.66153 0 0 2.72882 0 6.06762C0 9.40641 2.69322 12.1352 5.98845 12.1352H58.4904C76.1706 12.1352 87.3553 21.0922 92.1715 32.489C94.0725 36.9836 95.0231 41.8313 95.0231 46.6789C95.0231 51.5587 94.1042 56.4064 92.2348 60.8688C87.5138 72.1051 76.6141 80.9016 59.536 80.9016H51.6781C48.3512 80.9016 45.6897 83.6304 45.6897 86.9692C45.6897 89.3449 47.0521 91.4316 49.0166 92.4268L97.5896 121.994C100.41 123.696 104.085 122.765 105.796 119.908C107.475 117.05 106.556 113.326 103.736 111.593V111.625Z" fill="#EC6810"/>
<path d="M59.1241 110.662H12.3255L12.072 52.1365H59.1241C62.451 52.1365 65.1125 49.4076 65.1125 46.0688C65.1125 42.73 62.4193 40.0012 59.1241 40.0012H6.08354C2.75662 40.0012 0.0950928 42.73 0.0950928 46.0688C0.0950928 46.2615 0.0950928 46.4541 0.0950928 46.6467L0.411937 116.794C0.411937 120.132 3.10515 122.829 6.40039 122.829H59.1558C62.4827 122.829 65.1442 120.1 65.1442 116.761C65.1442 113.423 62.451 110.694 59.1558 110.694L59.1241 110.662Z" fill="#EC6810"/>
<path d="M5.98845 19.6155C2.66153 19.6155 0 22.3443 0 25.6831C0 29.0219 2.69322 31.7507 5.98845 31.7507H58.4587C66.1898 31.7507 71.101 35.5069 73.1605 40.3866C73.9843 42.3129 74.3962 44.3996 74.3962 46.4864C74.3962 48.5731 73.9843 50.6598 73.1922 52.554C71.1327 57.3374 66.2532 61.0936 58.4587 61.0936H29.4987C26.1718 61.0936 23.5102 63.8224 23.5102 67.1612V98.6229C23.5102 101.994 26.2034 104.691 29.4987 104.691C32.7939 104.691 35.4871 101.962 35.4871 98.6229V73.2288H58.4587C71.7664 73.2288 80.353 66.2623 84.1552 57.3374C85.6444 53.9023 86.3731 50.1783 86.3414 46.4543C86.3414 42.7302 85.581 39.0062 84.1235 35.5711C80.2896 26.6141 71.6713 19.6155 58.4587 19.6155H5.98845Z" fill="#EC6810"/>
</svg>
