<svg width="108" height="143" viewBox="0 0 108 143" fill="none" xmlns="http://www.w3.org/2000/svg">
<path d="M103.79 112.501L71.3533 92.6147C87.3608 89.2066 98.0217 78.7837 103.304 66.1108C105.799 60.0887 107.03 53.5703 107.03 47.0849C107.03 40.5334 105.766 34.015 103.239 27.9929C96.6608 12.2758 81.755 0 58.5214 0H5.99472C2.68952 0 0 2.74635 0 6.12137C0 9.4964 2.68952 12.2427 5.99472 12.2427H58.489C76.1815 12.2427 87.3608 21.2759 92.189 32.7907C94.1008 37.3238 95.0406 42.2209 95.0406 47.0849C95.0406 51.982 94.1008 56.8791 92.2538 61.3792C87.5553 72.7285 76.6352 81.5631 59.5583 81.5631H51.6842C48.379 81.5631 45.6895 84.3095 45.6895 87.6845C45.6895 90.1 47.0504 92.1845 49.0271 93.1772L97.6005 122.99C100.42 124.711 104.114 123.784 105.799 120.872C107.484 117.994 106.576 114.221 103.725 112.501H103.79Z" fill="#D52124"/>
<path d="M59.1372 111.541H12.346L12.0868 52.5445H59.1372C62.4424 52.5445 65.1319 49.7982 65.1319 46.4231C65.1319 43.0481 62.4424 40.3018 59.1372 40.3018H6.09204C2.78684 40.3018 0.0973206 43.0481 0.0973206 46.4231C0.0973206 46.6217 0.0973206 46.8202 0.0973206 46.9856L0.388953 117.696C0.388953 121.071 3.07847 123.784 6.35127 123.784H59.1048C62.41 123.784 65.0995 121.038 65.0995 117.663C65.0995 114.288 62.41 111.541 59.1048 111.541H59.1372Z" fill="#D52124"/>
<path d="M5.99472 19.7538C2.68952 19.7538 0 22.5001 0 25.8752C0 29.2502 2.68952 31.9965 5.99472 31.9965H58.489C66.2335 31.9965 71.1265 35.8017 73.2004 40.6988C74.0105 42.6179 74.4317 44.7356 74.4317 46.8202C74.4317 48.9378 74.0429 51.0224 73.2004 52.9415C71.1589 57.7725 66.2659 61.5446 58.4566 61.5446H29.4875C26.1823 61.5446 23.4928 64.2909 23.4928 67.6659V99.3978C23.4928 102.773 26.1823 105.519 29.4875 105.519C32.7927 105.519 35.4822 102.773 35.4822 99.3978V73.7873H58.4566C71.7746 73.7873 80.3616 66.7394 84.1529 57.7725C85.6434 54.2982 86.3563 50.5592 86.3563 46.8202C86.3563 43.0812 85.611 39.3091 84.1205 35.8348C80.2968 26.8016 71.6774 19.7538 58.4242 19.7538H5.92991H5.99472Z" fill="#D52124"/>
<path d="M6.10935 142.781H1.97636C1.32549 142.781 1.00006 142.437 1.00006 141.812V134.062C1.00006 133.406 1.32549 133.094 1.97636 133.094H6.04426C6.27206 133.094 6.46732 133.156 6.63004 133.312C6.79276 133.469 6.85784 133.687 6.85784 133.937C6.85784 134.187 6.79276 134.406 6.63004 134.531C6.46732 134.656 6.27206 134.75 6.04426 134.75H2.82248V137.062H5.6212C5.849 137.062 6.04426 137.125 6.20698 137.281C6.36969 137.437 6.43478 137.656 6.43478 137.906C6.43478 138.156 6.36969 138.375 6.20698 138.5C6.04426 138.625 5.849 138.719 5.6212 138.719H2.78994V141.031H6.01172C6.23952 141.031 6.43478 141.094 6.5975 141.25C6.76021 141.406 6.8253 141.625 6.8253 141.875C6.8253 142.125 6.76021 142.344 6.5975 142.469C6.43478 142.625 6.23952 142.687 6.01172 142.687L6.10935 142.781Z" fill="#F9F9FF"/>
<path d="M12.5854 142.5C12.4227 142.687 12.1949 142.781 11.902 142.781C11.6091 142.781 11.3488 142.687 11.1861 142.5C11.0233 142.312 10.9583 142.062 10.9583 141.781V134.281C10.9583 133.906 11.0559 133.594 11.2186 133.406C11.3813 133.219 11.6091 133.094 11.8695 133.094C12.1624 133.094 12.4227 133.187 12.6505 133.344C12.8458 133.531 13.1386 133.875 13.4966 134.406L17.2391 139.75V134.094C17.2066 133.812 17.2716 133.562 17.4344 133.375C17.5971 133.187 17.8249 133.094 18.1178 133.094C18.4107 133.094 18.671 133.187 18.8012 133.375C18.9639 133.562 19.029 133.812 19.029 134.094V141.594C19.029 141.969 18.9313 142.281 18.7686 142.469C18.6059 142.656 18.3781 142.781 18.0527 142.781C17.7272 142.781 17.4669 142.656 17.2066 142.406C16.9462 142.156 16.5231 141.656 16.0025 140.906L12.7481 136.25V141.781C12.7807 142.062 12.7156 142.312 12.5529 142.5H12.5854Z" fill="#F9F9FF"/>
<path d="M28.141 142.906C26.6115 142.906 25.4074 142.469 24.4636 141.563C23.5198 140.656 23.0642 139.469 23.0642 137.937C23.0642 136.406 23.5198 135.187 24.4311 134.312C25.3423 133.437 26.6115 133 28.2061 133C29.2475 133 30.0285 133.125 30.5166 133.406C30.8746 133.594 31.0699 133.875 31.0699 134.219C31.0699 134.469 31.0048 134.687 30.8421 134.844C30.6794 135 30.4841 135.062 30.2563 135.062C30.1587 135.062 29.9309 135 29.5078 134.937C29.1173 134.844 28.7268 134.812 28.3037 134.812C27.3274 134.812 26.5138 135.094 25.8955 135.656C25.2772 136.219 24.9517 137 24.9517 138C24.9517 139 25.2446 139.781 25.8304 140.344C26.4162 140.906 27.1972 141.187 28.1735 141.187C28.5641 141.187 28.922 141.125 29.2149 141.031V138.531C29.2149 138.25 29.28 138 29.4427 137.813C29.6054 137.625 29.8332 137.531 30.1587 137.531C30.4841 137.531 30.6794 137.625 30.8421 137.813C31.0048 138 31.0699 138.25 31.0699 138.531V141.469C31.0699 142.031 30.8095 142.437 30.2563 142.656C29.7031 142.875 28.9871 143 28.0434 143L28.141 142.906Z" fill="#F9F9FF"/>
<path d="M40.4098 142.781H36.2768C35.626 142.781 35.3005 142.437 35.3005 141.812V134.062C35.3005 133.406 35.626 133.094 36.2768 133.094H40.3447C40.5725 133.094 40.7678 133.156 40.9305 133.312C41.0932 133.469 41.1583 133.687 41.1583 133.937C41.1583 134.187 41.0932 134.406 40.9305 134.531C40.7678 134.656 40.5725 134.75 40.3447 134.75H37.123V137.062H39.9217C40.1495 137.062 40.3447 137.125 40.5075 137.281C40.6702 137.437 40.7353 137.656 40.7353 137.906C40.7353 138.156 40.6702 138.375 40.5075 138.5C40.3447 138.625 40.1495 138.719 39.9217 138.719H37.0904V141.031H40.3122C40.54 141.031 40.7353 141.094 40.898 141.25C41.0607 141.406 41.1258 141.625 41.1258 141.875C41.1258 142.125 41.0607 142.344 40.898 142.469C40.7353 142.625 40.54 142.687 40.3122 142.687L40.4098 142.781Z" fill="#F9F9FF"/>
<path d="M46.8536 142.5C46.6909 142.687 46.463 142.781 46.1702 142.781C45.8773 142.781 45.6169 142.687 45.4542 142.5C45.2915 142.312 45.2264 142.062 45.2264 141.781V134.281C45.2264 133.906 45.324 133.594 45.4868 133.406C45.6495 133.219 45.8773 133.094 46.1376 133.094C46.4305 133.094 46.6909 133.187 46.9187 133.344C47.1139 133.531 47.4068 133.875 47.7648 134.406L51.5073 139.75V134.094C51.4747 133.812 51.5398 133.562 51.7025 133.375C51.8652 133.187 52.093 133.094 52.3859 133.094C52.6788 133.094 52.9392 133.187 53.0693 133.375C53.232 133.562 53.2971 133.812 53.2971 134.094V141.594C53.2971 141.969 53.1995 142.281 53.0368 142.469C52.8741 142.656 52.6463 142.781 52.3208 142.781C51.9954 142.781 51.7351 142.656 51.4747 142.406C51.2144 142.156 50.7913 141.656 50.2706 140.906L47.0163 136.25V141.781C47.0488 142.062 46.9837 142.312 46.821 142.5H46.8536Z" fill="#F9F9FF"/>
<path d="M59.5127 142.5C59.35 142.687 59.1222 142.781 58.8293 142.781C58.5364 142.781 58.2761 142.687 58.1134 142.5C57.9506 142.312 57.8856 142.062 57.8856 141.781V134.094C57.8856 133.812 57.9506 133.562 58.1134 133.375C58.2761 133.187 58.5039 133.094 58.8293 133.094C59.1547 133.094 59.3825 133.187 59.5127 133.375C59.6754 133.562 59.7405 133.812 59.7405 134.094V137.094H64.2315V134.094C64.2315 133.812 64.3291 133.562 64.4918 133.375C64.6546 133.187 64.8824 133.094 65.2078 133.094C65.5332 133.094 65.761 133.187 65.8912 133.375C66.0539 133.562 66.119 133.812 66.119 134.094V141.781C66.119 142.062 66.0539 142.312 65.8912 142.5C65.7285 142.687 65.5007 142.781 65.2078 142.781C64.9149 142.781 64.6546 142.687 64.4918 142.5C64.3291 142.312 64.264 142.062 64.264 141.781V138.781H59.7731V141.781C59.7731 142.062 59.708 142.312 59.5453 142.5H59.5127Z" fill="#F9F9FF"/>
<path d="M78.16 141.562C78.2902 141.875 78.2576 142.156 78.0949 142.406C77.9322 142.656 77.6718 142.781 77.3139 142.781C77.0535 142.781 76.8908 142.719 76.7606 142.594C76.6305 142.469 76.5328 142.25 76.4027 141.937L75.9145 140.562C75.9145 140.562 75.8169 140.562 75.7518 140.562H72.2371L71.749 141.937C71.6513 142.25 71.5212 142.437 71.391 142.594C71.2608 142.719 71.0656 142.781 70.8378 142.781C70.4798 142.781 70.2194 142.656 70.0567 142.406C69.894 142.156 69.8615 141.875 69.9916 141.562L72.3998 135.031C72.6602 134.281 72.9205 133.781 73.1158 133.5C73.3436 133.219 73.669 133.094 74.0921 133.094C74.5151 133.094 74.8406 133.219 75.0684 133.5C75.2636 133.781 75.524 134.281 75.7843 135.062L78.1925 141.562H78.16ZM72.8229 138.906H75.2962L74.0921 135.531L72.888 138.906H72.8229Z" fill="#F9F9FF"/>
<path d="M83.6274 142.5C83.4647 142.687 83.2368 142.781 82.944 142.781C82.6511 142.781 82.3907 142.687 82.228 142.5C82.0653 142.312 82.0002 142.062 82.0002 141.781V134.062C82.0002 133.406 82.3256 133.094 82.9765 133.094H85.4823C86.6539 133.094 87.5651 133.344 88.216 133.875C88.8668 134.406 89.2248 135.187 89.2248 136.25C89.2248 136.969 89.0621 137.594 88.7367 138.062C88.4112 138.531 87.9882 138.906 87.4675 139.125L88.7041 141.125C88.8994 141.406 88.9645 141.687 88.9645 141.937C88.9645 142.187 88.8668 142.375 88.6716 142.562C88.4763 142.719 88.216 142.812 87.9556 142.812C87.7604 142.812 87.5976 142.75 87.4675 142.625C87.3373 142.5 87.1746 142.281 87.0444 142.031L85.4173 139.406H83.8877V141.812C83.8877 142.094 83.8226 142.344 83.6599 142.531L83.6274 142.5ZM83.8552 134.687V137.719H85.8078C86.3285 137.719 86.719 137.594 86.9793 137.312C87.2397 137.031 87.4024 136.656 87.4024 136.219C87.4024 135.781 87.2397 135.375 86.8817 135.094C86.5563 134.844 86.1007 134.687 85.5474 134.687H83.8552Z" fill="#F9F9FF"/>
<path d="M94.8872 142.5C94.7245 142.687 94.4967 142.781 94.2038 142.781C93.9109 142.781 93.6505 142.687 93.4878 142.5C93.3251 142.312 93.26 142.062 93.26 141.781V134.094C93.26 133.812 93.3251 133.562 93.4878 133.375C93.6505 133.187 93.8783 133.094 94.2038 133.094C94.5292 133.094 94.757 133.187 94.8872 133.375C95.0499 133.562 95.115 133.812 95.115 134.094V141.781C95.115 142.062 95.0499 142.312 94.8872 142.5Z" fill="#F9F9FF"/>
<path d="M107.156 141.562C107.286 141.875 107.254 142.156 107.091 142.406C106.928 142.656 106.668 142.781 106.31 142.781C106.05 142.781 105.887 142.719 105.757 142.594C105.627 142.469 105.529 142.25 105.399 141.937L104.911 140.562C104.911 140.562 104.813 140.562 104.748 140.562H101.233L100.745 141.937C100.648 142.25 100.517 142.437 100.387 142.594C100.257 142.719 100.062 142.781 99.8339 142.781C99.4759 142.781 99.2156 142.656 99.0529 142.406C98.8902 142.156 98.8576 141.875 98.9878 141.562L101.396 135.031C101.656 134.281 101.917 133.781 102.112 133.5C102.34 133.219 102.665 133.094 103.088 133.094C103.511 133.094 103.837 133.219 104.065 133.5C104.26 133.781 104.52 134.281 104.78 135.062L107.189 141.562H107.156ZM101.819 138.906H104.292L103.088 135.531L101.884 138.906H101.819Z" fill="#F9F9FF"/>
</svg>
