<svg width="189" height="137" viewBox="0 0 189 137" fill="none" xmlns="http://www.w3.org/2000/svg">
<path d="M167.383 117.407L159.338 84.772H142.835L148.419 63.6321H154.114L151.377 52.5314L162.545 10.2818L189 117.437H167.41L167.383 117.407ZM130.534 24.1729L131.999 18.5922V18.6529L136.919 0H158.592L134.21 92.3242L133.961 93.2947C132.192 99.9673 128.35 106.033 123.457 110.37C118.923 114.374 113.422 116.982 107.645 117.437H56.5314L62.5577 94.5989H103.636C108.391 94.5989 112.897 91.2323 114.777 84.0138L130.561 24.2032L130.534 24.1729ZM55.5085 95.9334V95.7514L49.731 117.407H27.8648L49.5375 34.849C49.8969 33.5145 50.6985 32.271 51.749 31.3611C52.6889 30.5422 53.7946 29.9963 54.8727 29.9963H122.296L109.745 77.3715C107.479 85.7729 106.235 87.0164 98.1904 87.4714H64.4098L70.5467 64.2387H91.1689L94.0162 53.1683H69.2474C67.9482 53.1683 66.6766 53.3806 66.0684 55.6857L64.2716 62.6919L61.0096 75.0968L55.8126 94.5686H55.8679L55.5085 95.9334ZM124.176 22.9597H54.9004C52.3295 22.9597 49.814 24.0819 47.7683 25.8714C45.7503 27.6609 44.147 30.1479 43.4282 32.9079L21.258 117.377H0L23.9947 24.2942C25.7363 17.5913 29.5788 11.495 34.4993 7.15786C39.5028 2.76003 45.695 0 52.0807 0H130.257L124.203 22.9294L124.176 22.9597Z" fill="#D31317"/>
<path d="M152.261 132.784L153.727 128.629L155.164 132.784H152.261ZM148.999 136.697H150.852L151.681 134.361H155.717L156.574 136.697H158.481L154.473 126.476H153.035L148.972 136.697H148.999ZM141.757 136.697H143.415V126.476H141.757V136.697ZM130.616 130.782V128.022H132.054C132.911 128.022 133.934 128.174 133.934 129.387C133.934 130.722 132.828 130.813 131.916 130.813H130.616V130.782ZM128.958 136.697H130.616V132.36H131.833L133.989 136.697H135.979L133.491 132.178C134.873 131.965 135.648 130.873 135.648 129.418C135.648 127.112 133.961 126.476 132.164 126.476H128.93V136.697H128.958ZM117.099 132.784L118.564 128.629L120.001 132.784H117.099ZM113.837 136.697H115.689L116.518 134.361H120.554L121.411 136.697H123.318L119.31 126.476H117.873L113.809 136.697H113.837ZM100.568 136.697H102.226V132.178H106.594V136.697H108.253V126.476H106.594V130.54H102.226V126.476H100.568V136.697ZM85.5018 136.697H87.1605V128.841L91.777 136.697H93.8779V126.476H92.2193V134.088L87.7133 126.476H85.5018V136.697ZM72.8963 136.697H79.3096V135.059H74.5549V132.299H78.8397V130.661H74.5549V128.144H79.0609V126.506H72.8963V136.727V136.697ZM66.3724 130.722H62.8063V132.36H64.7138V134.786C64.1332 135.15 63.3592 135.332 62.5299 135.332C60.5949 135.332 59.3233 133.724 59.3233 131.541C59.3233 129.509 60.5949 127.871 62.5299 127.871C63.4698 127.871 64.3821 128.235 64.9626 128.872L66.1789 127.507C65.2113 126.567 63.9398 126.233 62.5023 126.233C59.6274 126.233 57.5817 128.386 57.5817 131.662C57.5817 134.938 59.6274 137 62.5023 137C63.9398 137 65.239 136.666 66.3724 135.999V130.752V130.722ZM43.0411 136.697H44.6997V128.841L49.3162 136.697H51.4171V126.476H49.7586V134.088L45.2526 126.476H43.0411V136.697ZM30.4356 136.697H36.8489V135.059H32.0942V132.299H36.379V130.661H32.0942V128.144H36.6001V126.506H30.408V136.727L30.4356 136.697Z" fill="#F1F1F1"/>
</svg>
