<svg width="69" height="46" viewBox="0 0 69 46" fill="none" xmlns="http://www.w3.org/2000/svg">
<path d="M60.73 38.71L57.82 27.95H51.85L53.87 20.98H55.93L54.94 17.32L58.98 3.39L68.55 38.72H60.74L60.73 38.71ZM47.4 7.96999L47.93 6.13V6.14999L49.71 0H57.55L48.73 30.44L48.64 30.76C48 32.96 46.61 34.96 44.84 36.39C43.2 37.71 41.21 38.57 39.12 38.72H20.63L22.81 31.19H37.67C39.39 31.19 41.02 30.08 41.7 27.7L47.41 7.98L47.4 7.96999ZM20.26 31.64V31.58L18.17 38.72H10.26L18.1 11.5C18.23 11.06 18.52 10.65 18.9 10.35C19.24 10.08 19.64 9.89999 20.03 9.89999H44.42L39.88 25.52C39.06 28.29 38.61 28.7 35.7 28.85H23.48L25.7 21.19H33.16L34.19 17.54H25.23C24.76 17.54 24.3 17.61 24.08 18.37L23.43 20.68L22.25 24.77L20.37 31.19H20.39L20.26 31.64ZM45.1 7.57H20.04C19.11 7.57 18.2 7.94 17.46 8.53C16.73 9.12 16.15 9.94 15.89 10.85L7.86998 38.7H0.179993L8.85999 8.00999C9.48999 5.79999 10.88 3.79 12.66 2.36C14.47 0.910001 16.71 0 19.02 0H47.3L45.11 7.56L45.1 7.57Z" fill="white"/>
<path d="M55.26 43.78L55.79 42.41L56.31 43.78H55.26ZM54.08 45.07H54.75L55.05 44.3H56.51L56.82 45.07H57.51L56.06 41.7H55.54L54.07 45.07H54.08ZM51.46 45.07H52.06V41.7H51.46V45.07ZM47.43 43.12V42.2H47.95C48.26 42.2 48.63 42.25 48.63 42.65C48.63 43.09 48.23 43.12 47.9 43.12H47.43ZM46.83 45.07H47.43V43.64H47.87L48.65 45.07H49.37L48.47 43.58C48.97 43.51 49.25 43.15 49.25 42.66C49.25 41.9 48.64 41.69 47.99 41.69H46.82V45.06L46.83 45.07ZM42.54 43.78L43.07 42.41L43.59 43.78H42.54ZM41.36 45.07H42.03L42.33 44.3H43.79L44.1 45.07H44.79L43.34 41.7H42.82L41.35 45.07H41.36ZM36.56 45.07H37.16V43.58H38.74V45.07H39.34V41.7H38.74V43.04H37.16V41.7H36.56V45.07ZM31.11 45.07H31.71V42.48L33.38 45.07H34.14V41.7H33.54V44.21L31.91 41.7H31.11V45.07ZM26.55 45.07H28.87V44.53H27.15V43.61H28.7V43.07H27.15V42.24H28.78V41.7H26.54V45.07H26.55ZM24.19 43.1H22.9V43.64H23.59V44.44C23.38 44.56 23.1 44.62 22.8 44.62C22.1 44.62 21.64 44.09 21.64 43.37C21.64 42.7 22.1 42.16 22.8 42.16C23.14 42.16 23.47 42.28 23.68 42.49L24.12 42.04C23.77 41.73 23.31 41.62 22.79 41.62C21.75 41.62 21.01 42.33 21.01 43.41C21.01 44.49 21.75 45.17 22.79 45.17C23.31 45.17 23.78 45.06 24.19 44.84V43.11V43.1ZM15.75 45.07H16.35V42.48L18.02 45.07H18.78V41.7H18.18V44.21L16.55 41.7H15.75V45.07ZM11.19 45.07H13.51V44.53H11.79V43.61H13.34V43.07H11.79V42.24H13.42V41.7H11.18V45.07H11.19Z" fill="white"/>
</svg>
