<svg width="107" height="146" viewBox="0 0 107 146" fill="none" xmlns="http://www.w3.org/2000/svg">
<path d="M2.916 141.919C2.75753 142.114 2.50397 142.243 2.21872 142.243C1.93347 142.243 1.67993 142.146 1.48977 141.919C1.2996 141.693 1.23621 141.433 1.23621 141.142V132.786C1.23621 132.074 1.55314 131.717 2.21872 131.717H4.75428C5.92697 131.717 6.87779 132.009 7.54337 132.559C8.20895 133.11 8.55759 133.984 8.55759 135.118C8.55759 135.895 8.39911 136.575 8.08217 137.094C7.76522 137.612 7.32152 138 6.81441 138.227L8.08217 140.397C8.27233 140.721 8.36743 141.012 8.36743 141.272C8.36743 141.531 8.27235 141.757 8.05049 141.952C7.82863 142.114 7.60676 142.211 7.32151 142.211C7.13134 142.211 6.97288 142.146 6.81441 141.984C6.68764 141.854 6.52917 141.628 6.37069 141.336L4.72258 138.486H3.13786V141.077C3.13786 141.401 3.04277 141.66 2.8843 141.854L2.916 141.919ZM3.13786 133.466V136.77H5.13459C5.6417 136.77 6.05374 136.64 6.33899 136.316C6.62424 136.025 6.75101 135.636 6.75101 135.118C6.75101 134.6 6.59255 134.179 6.24391 133.887C5.89528 133.596 5.45156 133.466 4.88106 133.466H3.16956H3.13786Z" fill="#F9F9FF"/>
<path d="M17.115 142.211H12.8996C12.234 142.211 11.9171 141.855 11.9171 141.142V132.754C11.9171 132.041 12.234 131.685 12.8996 131.685H17.0516C17.3051 131.685 17.4953 131.782 17.6538 131.944C17.8123 132.106 17.9073 132.333 17.9073 132.624C17.9073 132.916 17.844 133.11 17.6855 133.272C17.527 133.434 17.3368 133.531 17.0833 133.531H13.8188V136.057H16.6713C16.9248 136.057 17.115 136.154 17.2734 136.316C17.4319 136.478 17.527 136.705 17.527 136.996C17.527 137.288 17.4636 137.482 17.3051 137.644C17.1467 137.806 16.9565 137.903 16.7029 137.903H13.8188V140.429H17.0833C17.3368 140.429 17.527 140.494 17.6855 140.689C17.844 140.851 17.939 141.077 17.939 141.369C17.939 141.66 17.8756 141.855 17.7172 142.016C17.5587 142.178 17.3685 142.243 17.115 142.243V142.211Z" fill="#F9F9FF"/>
<path d="M28.9053 140.883C29.0321 141.239 29.0004 141.531 28.8419 141.822C28.6835 142.081 28.3982 142.211 28.0496 142.211C27.796 142.211 27.6059 142.146 27.4791 141.984C27.3523 141.854 27.2255 141.595 27.1304 141.272L26.6234 139.782C26.6234 139.782 26.5283 139.782 26.4649 139.782H22.8834L22.3763 141.239C22.2812 141.563 22.1544 141.79 22.0277 141.952C21.9009 142.081 21.7107 142.178 21.4572 142.178C21.0768 142.178 20.8233 142.049 20.6648 141.79C20.5063 141.531 20.4746 141.207 20.6014 140.851L23.0419 133.79C23.3271 132.981 23.5807 132.43 23.8026 132.138C24.0244 131.847 24.3414 131.685 24.7851 131.685C25.2288 131.685 25.5457 131.847 25.7676 132.138C25.9894 132.43 26.2113 133.013 26.4966 133.855L28.937 140.883H28.9053ZM23.4539 138H25.9578L24.7217 134.341L23.4856 138H23.4539Z" fill="#F9F9FF"/>
<path d="M36.9873 142.211H33.0255C32.3599 142.211 32.043 141.855 32.043 141.142V132.721C32.043 132.462 32.138 132.203 32.3282 132.009C32.5184 131.815 32.7402 131.685 32.9938 131.685C33.2473 131.685 33.4692 131.782 33.6594 131.977C33.8495 132.171 33.9446 132.43 33.9446 132.689V140.365H36.9556C37.2091 140.365 37.3993 140.429 37.5578 140.624C37.7162 140.786 37.8113 141.012 37.8113 141.304C37.8113 141.595 37.7479 141.79 37.5895 141.952C37.431 142.114 37.2408 142.178 36.9873 142.178V142.211Z" fill="#F9F9FF"/>
<path d="M42.407 141.919C42.2485 142.114 41.9949 142.243 41.7097 142.243C41.4244 142.243 41.1709 142.146 40.9807 141.919C40.7906 141.693 40.7272 141.433 40.7272 141.142V132.819C40.7272 132.495 40.8223 132.236 40.9807 132.041C41.1392 131.847 41.3927 131.717 41.7097 131.717C42.0266 131.717 42.2485 131.815 42.407 132.041C42.5654 132.236 42.6605 132.527 42.6605 132.819V141.142C42.6605 141.466 42.5654 141.725 42.407 141.919Z" fill="#F9F9FF"/>
<path d="M53.2466 142.211H46.7175C46.464 142.211 46.2104 142.114 46.0203 141.919C45.8301 141.725 45.735 141.466 45.735 141.174C45.735 140.915 45.7984 140.689 45.9569 140.494L51.3449 133.531H46.8443C46.5908 133.531 46.3689 133.466 46.1787 133.304C45.9885 133.142 45.9252 132.916 45.9252 132.624C45.9252 132.333 46.0202 132.106 46.1787 131.944C46.3689 131.782 46.5591 131.717 46.8443 131.717H53.0247C53.3099 131.717 53.5318 131.815 53.722 132.009C53.9121 132.203 54.0072 132.462 54.0072 132.754C54.0072 132.98 53.9121 133.207 53.7536 133.434L48.3656 140.397H53.2466C53.5001 140.397 53.722 140.462 53.9121 140.624C54.1023 140.786 54.1657 141.012 54.1657 141.304C54.1657 141.595 54.0706 141.822 53.9121 141.984C53.722 142.146 53.5001 142.211 53.2466 142.211Z" fill="#F9F9FF"/>
<path d="M64.8782 140.883C65.005 141.239 64.9733 141.531 64.8148 141.822C64.6564 142.081 64.3711 142.211 64.0225 142.211C63.7689 142.211 63.5788 142.146 63.452 141.984C63.3252 141.854 63.1984 141.595 63.1034 141.272L62.5962 139.782C62.5962 139.782 62.5011 139.782 62.4378 139.782H58.8563L58.3492 141.239C58.2541 141.563 58.1273 141.79 58.0006 141.952C57.8738 142.081 57.6836 142.178 57.43 142.178C57.0497 142.178 56.7962 142.049 56.6377 141.79C56.4792 141.531 56.4476 141.207 56.5743 140.851L59.0148 133.79C59.3 132.981 59.5536 132.43 59.7754 132.138C59.9973 131.847 60.3142 131.685 60.758 131.685C61.2017 131.685 61.5186 131.847 61.7405 132.138C61.9623 132.43 62.1842 133.013 62.4694 133.855L64.9099 140.883H64.8782ZM59.4585 138H61.9624L60.7263 134.341L59.4902 138H59.4585Z" fill="#F9F9FF"/>
<path d="M74.1646 140.106C74.3865 140.106 74.5767 140.203 74.7034 140.365C74.8302 140.527 74.8937 140.721 74.8937 140.948C74.8937 141.336 74.7035 141.66 74.3231 141.887C73.9111 142.146 73.3406 142.308 72.5799 142.34L72.5166 142.599C72.5166 142.599 72.6116 142.599 72.6433 142.632C72.7067 142.632 72.8018 142.697 72.9603 142.761C73.1188 142.826 73.2455 142.923 73.3723 143.02C73.4991 143.118 73.5942 143.28 73.6893 143.506C73.7843 143.733 73.816 143.96 73.816 144.251C73.816 144.737 73.6576 145.126 73.3089 145.482C72.9603 145.838 72.4849 146 71.851 146C71.4706 146 71.1537 145.935 70.9001 145.773C70.5832 145.579 70.4247 145.352 70.4247 145.028C70.4247 144.802 70.4881 144.607 70.6149 144.478C70.7417 144.348 70.9001 144.284 71.0586 144.284C71.1537 144.284 71.2488 144.284 71.4073 144.381C71.534 144.445 71.6608 144.478 71.7242 144.478C72.0412 144.478 72.1996 144.316 72.1996 143.992C72.1996 143.668 71.9778 143.506 71.5657 143.506C71.439 143.506 71.3122 143.506 71.2488 143.474C71.1854 143.474 71.122 143.377 71.0586 143.28C70.9952 143.182 70.9952 143.02 71.0586 142.826L71.1854 142.308V142.178C70.0127 141.919 69.0619 141.304 68.3646 140.332C67.6673 139.393 67.287 138.26 67.287 136.932C67.287 135.312 67.7624 134.017 68.6815 133.045C69.6007 132.074 70.8684 131.556 72.4849 131.556C73.2455 131.556 73.8794 131.717 74.3548 132.009C74.7034 132.236 74.8619 132.527 74.8619 132.851C74.8619 133.142 74.7986 133.369 74.6401 133.531C74.4816 133.693 74.2914 133.79 74.0379 133.79C73.9111 133.79 73.6576 133.758 73.3089 133.661C72.9603 133.564 72.6751 133.531 72.4215 133.531C71.4707 133.531 70.6783 133.823 70.1078 134.438C69.5056 135.053 69.2203 135.895 69.2203 136.964C69.2203 138.033 69.5056 138.875 70.1395 139.49C70.7417 140.106 71.5024 140.397 72.4215 140.397C72.7384 140.397 73.0554 140.332 73.404 140.235C73.721 140.138 73.9745 140.073 74.133 140.073L74.1646 140.106Z" fill="#F9F9FF"/>
<path d="M82.1834 142.34C80.6621 142.34 79.4577 141.822 78.5703 140.818C77.6829 139.814 77.2391 138.519 77.2391 136.996C77.2391 135.474 77.6829 134.146 78.5703 133.142C79.4577 132.138 80.6621 131.62 82.1834 131.62C83.7048 131.62 84.9092 132.138 85.7966 133.142C86.684 134.146 87.1278 135.442 87.1278 136.996C87.1278 138.551 86.684 139.814 85.7966 140.818C84.9092 141.854 83.7048 142.34 82.1518 142.34H82.1834ZM82.1834 140.494C83.1343 140.494 83.895 140.17 84.4021 139.555C84.9092 138.907 85.1944 138.065 85.1944 136.964C85.1944 135.863 84.9409 135.021 84.4021 134.373C83.8633 133.725 83.1343 133.434 82.1834 133.434C81.2326 133.434 80.5037 133.758 79.9966 134.405C79.4578 135.053 79.2042 135.895 79.2042 136.996C79.2042 138.098 79.4578 138.94 79.9966 139.555C80.5354 140.203 81.2643 140.494 82.1834 140.494ZM81.0424 128.22C81.4228 128.22 81.7397 128.284 82.0567 128.414C82.3419 128.543 82.5955 128.673 82.8174 128.803C83.0075 128.932 83.166 128.997 83.2611 128.997C83.3562 128.997 83.4195 128.997 83.4829 128.932C83.5463 128.9 83.578 128.803 83.6414 128.673C83.7048 128.543 83.7365 128.479 83.7682 128.446C83.8949 128.252 84.0851 128.187 84.3387 128.187C84.5922 128.187 84.7824 128.284 84.9092 128.479C85.0359 128.673 85.0994 128.9 85.0994 129.191C85.0994 129.612 84.9726 130.001 84.6873 130.325C84.4021 130.681 84.0534 130.843 83.578 130.843C83.166 130.843 82.7223 130.681 82.2468 130.39C81.7714 130.098 81.4228 129.936 81.296 129.936C81.2009 129.936 81.1376 129.936 81.0742 129.936C81.0108 129.936 80.9474 130.001 80.9157 130.033C80.884 130.098 80.8523 130.13 80.8206 130.13C80.8206 130.13 80.7889 130.195 80.7255 130.292C80.6938 130.39 80.6621 130.422 80.6621 130.422C80.567 130.681 80.3769 130.811 80.0917 130.811C79.8381 130.811 79.6479 130.713 79.5211 130.551C79.3944 130.39 79.331 130.163 79.331 129.904C79.331 129.418 79.4894 128.997 79.8064 128.641C80.1233 128.284 80.5354 128.122 81.0742 128.122L81.0424 128.22Z" fill="#F9F9FF"/>
<path d="M95.6536 142.211H91.4383C90.7727 142.211 90.4557 141.855 90.4557 141.142V132.754C90.4557 132.041 90.7727 131.685 91.4383 131.685H95.5902C95.8438 131.685 96.0339 131.782 96.1924 131.944C96.3509 132.106 96.4459 132.333 96.4459 132.624C96.4459 132.916 96.3825 133.11 96.2241 133.272C96.0656 133.434 95.8754 133.531 95.6219 133.531H92.3574V136.057H95.2098C95.4634 136.057 95.6536 136.154 95.812 136.316C95.9705 136.478 96.0656 136.705 96.0656 136.996C96.0656 137.288 96.0022 137.482 95.8438 137.644C95.6853 137.806 95.4951 137.903 95.2416 137.903H92.3574V140.429H95.6219C95.8754 140.429 96.0656 140.494 96.2241 140.689C96.3825 140.851 96.4776 141.077 96.4776 141.369C96.4776 141.66 96.4142 141.855 96.2558 142.016C96.0973 142.178 95.9071 142.243 95.6536 142.243V142.211Z" fill="#F9F9FF"/>
<path d="M106.525 139.069C106.525 140.073 106.176 140.883 105.479 141.466C104.782 142.049 103.894 142.34 102.817 142.34C102.341 142.34 101.802 142.276 101.295 142.146C100.788 142.016 100.313 141.855 99.9641 141.595C99.4887 141.304 99.2668 140.948 99.2668 140.527C99.2668 140.235 99.3619 140.008 99.5204 139.847C99.6789 139.685 99.9008 139.62 100.186 139.62C100.344 139.62 100.693 139.749 101.232 140.009C101.771 140.268 102.278 140.397 102.785 140.397C103.355 140.397 103.767 140.268 104.021 140.041C104.275 139.814 104.401 139.523 104.401 139.199C104.401 139.069 104.401 138.972 104.338 138.843C104.306 138.745 104.211 138.648 104.116 138.551C104.021 138.454 103.894 138.389 103.831 138.324C103.736 138.26 103.609 138.195 103.419 138.098C103.229 138.001 103.07 137.968 102.975 137.903C102.88 137.871 102.69 137.806 102.436 137.709C102.183 137.612 102.024 137.547 101.929 137.547C101.042 137.223 100.376 136.835 99.9641 136.381C99.5521 135.928 99.3302 135.28 99.3302 134.47C99.3302 133.596 99.6472 132.916 100.313 132.365C100.947 131.815 101.866 131.556 103.07 131.556C104.275 131.556 105.099 131.782 105.701 132.203C106.049 132.462 106.208 132.754 106.208 133.142C106.208 133.402 106.113 133.628 105.954 133.79C105.796 133.952 105.574 134.017 105.289 134.017C105.099 134.017 104.75 133.92 104.275 133.693C103.799 133.466 103.355 133.369 102.943 133.369C102.468 133.369 102.119 133.466 101.834 133.661C101.549 133.855 101.454 134.114 101.454 134.406C101.454 134.665 101.549 134.891 101.771 135.053C101.993 135.215 102.278 135.377 102.69 135.539H102.722C103.989 135.96 104.845 136.316 105.257 136.608C105.986 137.094 106.398 137.806 106.43 138.745V138.972L106.525 139.069Z" fill="#F9F9FF"/>
<path d="M103.735 112.609L71.3122 92.6911C87.3178 89.2581 97.9988 78.8619 103.26 66.1663C105.764 60.1423 107 53.6326 107 47.1228C107 40.5807 105.732 34.0386 103.197 28.0146C96.6043 12.307 81.7079 0 58.476 0H5.99022C2.66232 0 0 2.75288 0 6.12111C0 9.48934 2.69402 12.2422 5.99022 12.2422H58.476C76.1614 12.2422 87.3495 21.2781 92.1671 32.7755C94.0687 37.3096 95.0195 42.2 95.0195 47.0904C95.0195 52.0132 94.1004 56.9036 92.2305 61.4054C87.508 72.7408 76.6051 81.6148 59.5536 81.6148H51.6934C48.3655 81.6148 45.7032 84.3677 45.7032 87.7359C45.7032 90.1325 47.0661 92.2377 49.0311 93.2417L97.6185 123.07C100.439 124.786 104.116 123.847 105.827 120.965C107.507 118.082 106.588 114.325 103.767 112.577L103.735 112.609Z" fill="#312D83"/>
<path d="M59.11 111.67H12.2975L12.0439 52.6283H59.11C62.4379 52.6283 65.1002 49.8754 65.1002 46.5072C65.1002 43.139 62.4062 40.3861 59.11 40.3861H6.0537C2.7258 40.3861 0.0634766 43.139 0.0634766 46.5072C0.0634766 46.7015 0.0634766 46.8959 0.0634766 47.0902L0.380415 117.855C0.380415 121.224 3.07445 123.944 6.37066 123.944H59.11C62.4379 123.944 65.1002 121.191 65.1002 117.823C65.1002 114.455 62.4062 111.702 59.11 111.702V111.67Z" fill="#312D83"/>
<path d="M5.99022 19.7883C2.66232 19.7883 0 22.5412 0 25.9094C0 29.2777 2.69402 32.0305 5.99022 32.0305H58.476C66.2094 32.0305 71.122 35.8198 73.1822 40.7426C74.0062 42.6858 74.4182 44.791 74.4182 46.8961C74.4182 49.0012 74.0062 51.1064 73.2139 53.0172C71.1538 57.8428 66.2728 61.6321 58.476 61.6321H29.5074C26.1795 61.6321 23.5172 64.385 23.5172 67.7532V99.4923C23.5172 102.893 26.2112 105.613 29.5074 105.613C32.8036 105.613 35.4976 102.861 35.4976 99.4923V73.8743H58.476C71.7876 73.8743 80.3768 66.8464 84.1801 57.8428C85.6697 54.3775 86.3987 50.6206 86.367 46.8637C86.367 43.1068 85.6064 39.35 84.1484 35.8846C80.3134 26.8487 71.6925 19.7883 58.476 19.7883H5.99022Z" fill="#312D83"/>
</svg>
