<svg width="78" height="52" viewBox="0 0 78 52" fill="none" xmlns="http://www.w3.org/2000/svg">
<path d="M6.75998 20.55H13.07V22.7701H9.17999V25.03H13.07V27.21H9.17999V29.5401H13.07V31.75H6.75998V20.55Z" fill="white"/>
<path d="M21.4 21.57L19.9 23.22C19.11 22.75 18.54 22.52 18.19 22.52C17.92 22.52 17.69 22.62 17.5 22.82C17.31 23.02 17.21 23.26 17.21 23.54C17.21 24.09 17.71 24.57 18.71 24.97C19.44 25.28 20 25.57 20.37 25.82C20.75 26.07 21.06 26.42 21.31 26.87C21.56 27.32 21.69 27.81 21.69 28.33C21.69 29.29 21.3 30.13 20.53 30.84C19.75 31.55 18.84 31.91 17.78 31.91C16.62 31.91 15.47 31.36 14.34 30.27L15.93 28.42C16.64 29.15 17.31 29.52 17.93 29.52C18.22 29.52 18.5 29.39 18.77 29.13C19.04 28.87 19.17 28.6 19.17 28.32C19.17 27.74 18.55 27.22 17.32 26.77C16.61 26.51 16.11 26.27 15.82 26.05C15.52 25.83 15.28 25.5 15.07 25.07C14.87 24.64 14.77 24.2 14.77 23.75C14.77 22.75 15.09 21.95 15.74 21.33C16.39 20.71 17.24 20.4 18.28 20.4C19.52 20.4 20.56 20.79 21.4 21.57Z" fill="white"/>
<path d="M26.88 28.98C26.75 28.88 26.62 28.77 26.5 28.65C25.93 28.05 25.64 27.25 25.64 26.25C25.64 25.19 25.91 24.35 26.46 23.72C26.59 23.57 26.73 23.44 26.88 23.33C27.36 22.97 27.95 22.79 28.64 22.79C28.85 22.79 29.07 22.81 29.3 22.85C30.05 22.98 30.89 23.32 31.82 23.88V21.15C30.94 20.76 30.1 20.52 29.3 20.44C29.08 20.42 28.85 20.4 28.64 20.4C28.01 20.4 27.43 20.49 26.88 20.68C26.08 20.95 25.36 21.42 24.73 22.08C23.66 23.2 23.12 24.58 23.12 26.2C23.12 27.82 23.65 29.14 24.7 30.25C25.34 30.92 26.07 31.39 26.88 31.66C27.4 31.83 27.95 31.91 28.54 31.91C28.78 31.91 29.03 31.89 29.31 31.86C30.03 31.77 30.87 31.57 31.83 31.25V28.54C30.88 29.09 30.04 29.41 29.31 29.52C29.14 29.54 28.97 29.56 28.81 29.56C28.05 29.56 27.41 29.37 26.89 28.99" fill="white"/>
<path d="M33.25 26.1501C33.25 24.4901 33.8 23.1301 34.89 22.0501C35.98 20.9701 37.28 20.4301 38.78 20.4301C40.44 20.4301 41.81 20.9701 42.9 22.0601C43.99 23.1401 44.53 24.5101 44.53 26.1701C44.53 27.8301 43.99 29.1801 42.92 30.2701C41.85 31.3601 40.49 31.9001 38.86 31.9001C37.23 31.9001 35.88 31.3601 34.83 30.2801C33.77 29.2001 33.25 27.8301 33.25 26.1601M38.9 22.6701C37.96 22.6501 37.21 22.9801 36.63 23.6401C36.05 24.3001 35.77 25.1601 35.77 26.2201C35.77 27.2201 36.06 28.0401 36.65 28.6901C37.24 29.3401 37.98 29.6701 38.87 29.6701C39.81 29.6701 40.57 29.3501 41.14 28.7001C41.72 28.0501 42.01 27.2001 42.01 26.1401C42.01 25.0801 41.73 24.2601 41.16 23.6301C40.59 23.0001 39.84 22.6701 38.9 22.6601" fill="white"/>
<path d="M46.53 20.55H50.22C51.34 20.55 52.23 20.85 52.88 21.44C53.53 22.03 53.86 22.83 53.86 23.84C53.86 24.41 53.71 25.0101 53.41 25.6301C53.11 26.2501 52.56 26.74 51.76 27.09L54.89 31.76H52.12L49.22 27.43H48.95V31.76H46.54V20.56L46.53 20.55ZM48.96 22.55V25.4701H49.48C50.74 25.4701 51.37 24.96 51.37 23.93C51.37 23.51 51.21 23.18 50.88 22.93C50.55 22.68 50.1 22.56 49.51 22.56H48.95L48.96 22.55Z" fill="white"/>
<path d="M68.73 20.55H72.42C73.54 20.55 74.43 20.85 75.08 21.44C75.73 22.03 76.06 22.83 76.06 23.84C76.06 24.41 75.91 25.0101 75.61 25.6301C75.31 26.2501 74.76 26.74 73.96 27.09L77.09 31.76H74.32L71.42 27.43H71.15V31.76H68.74V20.56L68.73 20.55ZM71.17 22.55V25.4701H71.69C72.95 25.4701 73.58 24.96 73.58 23.93C73.58 23.51 73.42 23.18 73.09 22.93C72.76 22.68 72.31 22.56 71.72 22.56H71.16L71.17 22.55Z" fill="white"/>
<path d="M61.06 25.48L61.56 24.2201L62.29 26.01L62.31 26.05L62.91 27.5201L63.74 29.55L63.78 29.66L63.79 29.68L64.63 31.75H67.06L62.5 20.55H60.63L56.14 31.75H58.56L59.37 29.73L61.06 25.48Z" fill="white"/>
<path d="M29.28 17.92C29.26 16.55 28.64 15.27 27.55 14.43C26.74 13.8 25.78 13.51 24.76 13.51C24.23 13.51 23.7 13.51 23.17 13.51H19.79V0.119999C19.79 0.119999 19.79 0.04 19.79 0L17.16 1.11V14.44C17.16 14.92 17.37 15.27 17.68 15.48C17.9 15.75 18.23 15.93 18.61 15.93C20.78 15.93 22.96 15.99 25.14 15.94C25.14 15.94 25.11 15.94 25.1 15.94C24.93 15.9 25.3 15.94 25.14 15.94C25.19 15.94 25.24 15.96 25.29 15.97C25.4 16 25.51 16.03 25.61 16.07C25.56 16.06 25.77 16.14 25.83 16.17C25.88 16.2 25.94 16.23 25.99 16.27C26 16.27 26.06 16.32 26.1 16.34C26.08 16.33 26.07 16.31 26.06 16.31C26.06 16.31 26.08 16.32 26.1 16.34C26.12 16.35 26.13 16.37 26.14 16.37C26.14 16.37 26.12 16.37 26.11 16.35C26.13 16.37 26.14 16.38 26.15 16.39C26.2 16.43 26.24 16.47 26.28 16.52C26.32 16.56 26.37 16.61 26.41 16.66C26.41 16.66 26.43 16.69 26.45 16.7C26.44 16.68 26.43 16.67 26.43 16.67C26.43 16.67 26.44 16.68 26.47 16.72C26.5 16.77 26.54 16.81 26.47 16.72C26.5 16.76 26.54 16.82 26.54 16.83C26.57 16.88 26.61 16.93 26.64 16.99C26.67 17.04 26.7 17.1 26.73 17.15C26.71 17.03 26.83 17.33 26.73 17.15C26.75 17.27 26.81 17.39 26.84 17.51C26.85 17.56 26.86 17.61 26.87 17.66C26.87 17.5 26.92 17.87 26.87 17.7C26.87 17.69 26.87 17.67 26.87 17.66C26.87 17.75 26.87 17.84 26.87 17.93C26.87 18 26.87 18.06 26.87 18.13V20.67C27.42 20.48 28.01 20.39 28.63 20.39C28.85 20.39 29.07 20.4 29.29 20.43V18.41C29.29 18.24 29.29 18.08 29.29 17.91" fill="white"/>
<path d="M28.52 31.91C27.93 31.91 27.38 31.82 26.86 31.66V33.17C26.86 33.37 26.86 33.58 26.86 33.78C26.86 33.85 26.86 33.92 26.86 33.99C26.86 34.01 26.86 34.02 26.86 34.03C26.86 34.01 26.86 33.99 26.87 33.97C26.87 34.03 26.86 34.16 26.86 34.03C26.86 34.07 26.85 34.11 26.84 34.14C26.81 34.26 26.78 34.38 26.74 34.5C26.74 34.5 26.67 34.67 26.63 34.73C26.58 34.82 26.52 34.9 26.47 34.98C26.53 34.87 26.38 35.09 26.32 35.15C26.28 35.19 26.23 35.24 26.19 35.28C26.16 35.31 26.08 35.37 26.05 35.38C26.05 35.38 26.07 35.38 26.08 35.36C26 35.41 25.92 35.47 25.83 35.52C25.74 35.57 25.43 35.67 25.7 35.6C25.58 35.64 25.46 35.68 25.34 35.71C25.28 35.72 25.21 35.74 25.15 35.75C25.15 35.75 25.14 35.75 25.13 35.75C24.89 35.8 25.33 35.75 25.13 35.75H25.09C24.95 35.75 24.81 35.75 24.67 35.75H18.61C18.16 35.75 17.72 36.03 17.52 36.43C17.33 36.64 17.2 36.93 17.2 37.29V48.49L17.28 48.46L19.84 47.38V38.18H24.17C24.72 38.18 25.25 38.18 25.8 38.08C27.91 37.69 29.3 35.71 29.3 33.63C29.3 33.03 29.3 32.43 29.3 31.83C29.03 31.86 28.77 31.88 28.53 31.88" fill="white"/>
<path d="M12.73 50.4V37.32C12.73 37.05 12.66 36.83 12.55 36.64C12.39 36.15 11.95 35.77 11.4 35.77C9.22999 35.77 7.05 35.71 4.87 35.76C4.87 35.76 4.89997 35.76 4.90997 35.76C5.07997 35.8 4.71 35.76 4.87 35.76C4.81999 35.76 4.76997 35.74 4.71997 35.73C4.60997 35.7 4.49999 35.67 4.39999 35.63C4.37999 35.62 4.21998 35.55 4.16998 35.52C4.11998 35.49 4.05998 35.46 4.00998 35.42C3.99998 35.42 3.93999 35.37 3.89999 35.35C3.91999 35.36 3.92997 35.38 3.93997 35.39C3.93997 35.39 3.91999 35.37 3.89999 35.36C3.82999 35.31 3.84998 35.32 3.88998 35.34C3.86998 35.32 3.85998 35.31 3.84998 35.3C3.79998 35.26 3.75997 35.22 3.71997 35.17C3.67997 35.13 3.63 35.08 3.59 35.04C3.59 35.04 3.55999 35.01 3.54999 34.99C3.55999 35.01 3.56999 35.02 3.57999 35.03C3.57999 35.03 3.55998 35.01 3.53998 34.98C3.52998 34.96 3.50998 34.95 3.50998 34.94C3.50998 34.94 3.52999 34.96 3.54999 34.98C3.51999 34.94 3.47998 34.88 3.47998 34.88C3.44998 34.83 3.40997 34.77 3.37997 34.72C3.34997 34.67 3.31998 34.61 3.28998 34.55C3.29998 34.63 3.24997 34.51 3.24997 34.49C3.24997 34.49 3.26998 34.5 3.28998 34.55C3.26998 34.43 3.20999 34.31 3.17999 34.19C3.16999 34.14 3.15999 34.09 3.14999 34.03C3.14999 34.2 3.09999 33.83 3.14999 34C3.14999 34.01 3.14999 34.02 3.14999 34.03C3.14999 33.94 3.14999 33.85 3.14999 33.77C3.14999 33.7 3.14999 33.64 3.14999 33.57V18.54C3.14999 18.34 3.14999 18.13 3.14999 17.93C3.14999 17.86 3.14999 17.79 3.14999 17.72V17.68C3.14999 17.68 3.14998 17.72 3.13998 17.74C3.13998 17.68 3.14999 17.54 3.14999 17.68C3.14999 17.64 3.15998 17.6 3.16998 17.56C3.19998 17.44 3.22999 17.32 3.26999 17.2C3.26999 17.21 3.33997 17.03 3.37997 16.97C3.42997 16.88 3.48998 16.8 3.53998 16.72C3.47998 16.83 3.62997 16.61 3.68997 16.55C3.72997 16.51 3.77998 16.46 3.81998 16.42C3.84998 16.39 3.92999 16.33 3.95999 16.32C3.95999 16.32 3.95998 16.32 3.94998 16.32C4.01998 16.27 4.09999 16.22 4.17999 16.17C4.23999 16.14 4.39998 16.08 4.41998 16.07C4.41998 16.07 4.38999 16.07 4.35999 16.08C4.46999 16.05 4.56999 16.01 4.67999 15.98C4.73999 15.96 4.81 15.95 4.87 15.94C4.87 15.94 4.87998 15.94 4.88998 15.94C4.68998 15.94 5.11998 15.89 4.88998 15.94H4.92999C5.06999 15.94 5.20998 15.94 5.34998 15.94H11.41C11.9 15.94 12.37 15.61 12.55 15.15C12.67 14.96 12.74 14.73 12.74 14.45V2.98999L10.1 4.10999V13.51H5.84998C5.29998 13.51 4.76997 13.51 4.21997 13.61C2.10997 14 0.719971 15.98 0.719971 18.06C0.719971 18.93 0.719971 19.81 0.719971 20.68V33.3C0.719971 33.47 0.719971 33.63 0.719971 33.8C0.739971 35.17 1.35998 36.45 2.44998 37.29C3.25998 37.92 4.21999 38.21 5.23999 38.21C5.76999 38.21 6.29999 38.21 6.82999 38.21H10.1V51.53L10.22 51.48L12.74 50.41L12.73 50.4Z" fill="white"/>
<path d="M39.02 36.59H36.3C36.31 36.84 36.4 37.04 36.54 37.19C36.69 37.34 36.86 37.42 37.05 37.42C37.4 37.42 37.67 37.26 37.87 36.94L38.91 37.29C38.52 37.97 37.92 38.31 37.1 38.31C36.5 38.31 36.02 38.13 35.67 37.76C35.31 37.4 35.14 36.91 35.14 36.29C35.14 35.74 35.33 35.27 35.7 34.9C36.07 34.52 36.54 34.34 37.08 34.34C37.62 34.34 38.09 34.54 38.46 34.93C38.83 35.33 39.01 35.82 39.01 36.41V36.59H39.02ZM36.31 35.83H37.85C37.74 35.35 37.5 35.12 37.12 35.12C36.9 35.12 36.72 35.18 36.58 35.31C36.44 35.43 36.35 35.61 36.32 35.84" fill="white"/>
<path d="M41.05 34.4101V34.8601C41.44 34.5001 41.85 34.3101 42.27 34.3101C42.63 34.3101 42.94 34.4601 43.17 34.7601C43.41 35.0601 43.53 35.4401 43.53 35.9101V38.2301H42.38V36.0901C42.38 35.8701 42.32 35.6901 42.2 35.5301C42.08 35.3801 41.93 35.3001 41.76 35.3001C41.55 35.3001 41.38 35.4001 41.25 35.5901C41.12 35.7801 41.05 36.0301 41.05 36.3301V38.2201H39.91V34.4001H41.05V34.4101Z" fill="white"/>
<path d="M47.19 38.0099V37.5599C46.85 37.9899 46.46 38.2099 46.01 38.2099C45.53 38.2099 45.13 38.0299 44.81 37.6499C44.49 37.2799 44.33 36.8199 44.33 36.2599C44.33 35.6999 44.5 35.2599 44.83 34.8899C45.16 34.5099 45.56 34.3199 46.03 34.3199C46.43 34.3199 46.81 34.5299 47.19 34.9399V34.4099H48.32V38.2699C48.32 38.4799 48.25 38.7299 48.12 38.9999C47.99 39.2799 47.76 39.4799 47.43 39.6099C47.11 39.7399 46.73 39.8099 46.3 39.8099C45.77 39.8099 45.35 39.7099 45.03 39.5099C44.71 39.3099 44.48 38.9699 44.34 38.4899H45.61C45.86 38.8399 46.13 39.0099 46.42 39.0099C46.65 39.0099 46.83 38.9199 46.97 38.7299C47.11 38.5399 47.18 38.2999 47.18 37.9999M45.54 36.2999C45.54 36.4999 45.63 36.6899 45.8 36.8699C45.97 37.0599 46.17 37.1499 46.4 37.1499C46.63 37.1499 46.81 37.0599 46.97 36.8899C47.13 36.7099 47.21 36.4999 47.21 36.2399C47.21 35.9799 47.13 35.7599 46.98 35.5999C46.83 35.4299 46.64 35.3499 46.4 35.3499C46.16 35.3499 45.96 35.4399 45.79 35.6099C45.63 35.7899 45.54 36.0199 45.54 36.2999Z" fill="white"/>
<path d="M53.01 36.59H50.29C50.3 36.84 50.39 37.04 50.53 37.19C50.68 37.34 50.85 37.42 51.04 37.42C51.39 37.42 51.66 37.26 51.86 36.94L52.9 37.29C52.51 37.97 51.91 38.31 51.09 38.31C50.49 38.31 50.01 38.13 49.66 37.76C49.3 37.4 49.13 36.91 49.13 36.29C49.13 35.74 49.32 35.27 49.69 34.9C50.06 34.52 50.53 34.34 51.07 34.34C51.61 34.34 52.08 34.54 52.45 34.93C52.82 35.33 53 35.82 53 36.41V36.59H53.01ZM50.3 35.83H51.84C51.73 35.35 51.49 35.12 51.11 35.12C50.89 35.12 50.71 35.18 50.57 35.31C50.43 35.43 50.34 35.61 50.31 35.84" fill="white"/>
<path d="M55.04 34.4101V34.8601C55.43 34.5001 55.84 34.3101 56.26 34.3101C56.62 34.3101 56.93 34.4601 57.16 34.7601C57.4 35.0601 57.52 35.4401 57.52 35.9101V38.2301H56.37V36.0901C56.37 35.8701 56.31 35.6901 56.19 35.5301C56.07 35.3801 55.92 35.3001 55.75 35.3001C55.54 35.3001 55.37 35.4001 55.24 35.5901C55.11 35.7801 55.04 36.0301 55.04 36.3301V38.2201H53.9V34.4001H55.04V34.4101Z" fill="white"/>
<path d="M58.73 32.3H59.88V34.85C60.09 34.67 60.28 34.54 60.46 34.46C60.64 34.38 60.84 34.34 61.08 34.34C61.48 34.34 61.79 34.48 62.02 34.77C62.25 35.06 62.36 35.46 62.36 35.97V38.22H61.21V36.17C61.21 35.92 61.15 35.72 61.02 35.55C60.89 35.38 60.74 35.3 60.56 35.3C60.33 35.3 60.16 35.4 60.05 35.59C59.94 35.78 59.89 36.08 59.89 36.49V38.22H58.74V32.29L58.73 32.3Z" fill="white"/>
<path d="M66 38.23V37.58H65.98C65.8 37.83 65.62 38.02 65.44 38.13C65.26 38.24 65.04 38.3 64.77 38.3C64.32 38.3 63.94 38.11 63.63 37.72C63.32 37.34 63.16 36.87 63.16 36.32C63.16 35.77 63.33 35.31 63.66 34.92C63.99 34.53 64.39 34.34 64.85 34.34C65.07 34.34 65.27 34.39 65.44 34.49C65.61 34.59 65.8 34.74 66 34.96V34.43H67.14V38.24H66V38.23ZM65.17 35.47C64.94 35.47 64.76 35.56 64.61 35.74C64.46 35.92 64.38 36.14 64.38 36.42C64.38 36.67 64.45 36.88 64.6 37.04C64.74 37.2 64.93 37.27 65.17 37.27C65.41 37.27 65.59 37.18 65.75 37C65.91 36.82 65.99 36.6 65.99 36.35C65.99 36.11 65.91 35.91 65.75 35.73C65.59 35.56 65.4 35.47 65.18 35.47" fill="white"/>
<path d="M69.35 34.41V34.97H69.37C69.48 34.78 69.61 34.63 69.76 34.52C69.91 34.41 70.05 34.35 70.18 34.35C70.26 34.35 70.33 34.35 70.39 34.37V35.61C70.3 35.59 70.2 35.58 70.11 35.58C69.88 35.58 69.69 35.66 69.57 35.83C69.44 35.99 69.38 36.22 69.38 36.52V38.22H68.23V34.4H69.37L69.35 34.41Z" fill="white"/>
<path d="M71.02 32.99C71.02 32.8 71.09 32.63 71.23 32.49C71.37 32.35 71.54 32.28 71.73 32.28C71.92 32.28 72.09 32.35 72.23 32.49C72.37 32.63 72.44 32.8 72.44 32.99C72.44 33.18 72.37 33.35 72.23 33.49C72.09 33.63 71.92 33.7 71.73 33.7C71.54 33.7 71.37 33.63 71.23 33.49C71.09 33.35 71.02 33.18 71.02 32.99ZM71.17 34.41H72.31V38.23H71.17V34.41Z" fill="white"/>
<path d="M76.01 38.23V37.58H75.99C75.81 37.83 75.63 38.02 75.45 38.13C75.27 38.24 75.05 38.3 74.78 38.3C74.33 38.3 73.95 38.11 73.64 37.72C73.33 37.34 73.17 36.87 73.17 36.32C73.17 35.77 73.34 35.31 73.67 34.92C74 34.53 74.4 34.34 74.86 34.34C75.08 34.34 75.28 34.39 75.45 34.49C75.62 34.59 75.81 34.74 76.01 34.96V34.43H77.15V38.24H76.01V38.23ZM75.18 35.47C74.95 35.47 74.77 35.56 74.62 35.74C74.47 35.92 74.39 36.14 74.39 36.42C74.39 36.67 74.46 36.88 74.61 37.04C74.75 37.2 74.94 37.27 75.18 37.27C75.42 37.27 75.6 37.18 75.76 37C75.92 36.82 76 36.6 76 36.35C76 36.11 75.92 35.91 75.76 35.73C75.6 35.56 75.41 35.47 75.19 35.47" fill="white"/>
</svg>
