<svg width="426" height="273" viewBox="0 0 426 273" fill="none" xmlns="http://www.w3.org/2000/svg">
<path d="M33.6204 108.683H68.7435V120.424H47.0908V132.377H68.7435V143.906H47.0908V156.229H68.7435V167.917H33.6204V108.683Z" fill="#2F5243"/>
<path d="M115.111 114.078L106.762 122.804C102.364 120.319 99.1914 119.102 97.2432 119.102C95.7403 119.102 94.4601 119.631 93.4025 120.689C92.3449 121.747 91.7884 123.016 91.7884 124.497C91.7884 127.406 94.5715 129.944 100.138 132.06C104.201 133.699 107.318 135.233 109.378 136.555C111.493 137.877 113.218 139.728 114.61 142.108C116.002 144.488 116.725 147.08 116.725 149.83C116.725 154.907 114.554 159.35 110.268 163.105C105.927 166.86 100.861 168.764 94.961 168.764C88.5042 168.764 82.1031 165.855 75.8132 160.09L84.6636 150.306C88.6156 154.167 92.345 156.124 95.7961 156.124C97.4103 156.124 98.9689 155.436 100.472 154.061C101.975 152.686 102.698 151.258 102.698 149.777C102.698 146.71 99.2471 143.96 92.4006 141.58C88.4486 140.204 85.6654 138.935 84.0512 137.772C82.3813 136.608 81.0454 134.863 79.8765 132.589C78.7632 130.314 78.2067 127.987 78.2067 125.608C78.2067 120.319 79.9879 116.088 83.606 112.809C87.224 109.53 91.9553 107.89 97.7442 107.89C104.646 107.89 110.435 109.953 115.111 114.078Z" fill="#2F5243"/>
<path d="M145.613 153.268C144.89 152.739 144.166 152.157 143.498 151.522C140.325 148.349 138.711 144.118 138.711 138.829C138.711 133.223 140.214 128.781 143.275 125.449C143.999 124.656 144.778 123.968 145.613 123.386C148.285 121.482 151.569 120.53 155.41 120.53C156.579 120.53 157.803 120.636 159.084 120.848C163.258 121.535 167.934 123.333 173.111 126.295V111.857C168.212 109.794 163.537 108.525 159.084 108.102C157.859 107.996 156.579 107.89 155.41 107.89C151.903 107.89 148.675 108.366 145.613 109.371C141.16 110.799 137.152 113.285 133.646 116.775C127.69 122.699 124.684 129.997 124.684 138.565C124.684 147.133 127.634 154.114 133.479 159.984C137.041 163.528 141.104 166.014 145.613 167.442C148.508 168.341 151.569 168.764 154.853 168.764C156.189 168.764 157.581 168.658 159.139 168.499C163.147 168.023 167.823 166.966 173.166 165.273V150.941C167.878 153.849 163.203 155.542 159.139 156.124C158.193 156.229 157.247 156.335 156.356 156.335C152.126 156.335 148.563 155.33 145.669 153.321" fill="#2F5243"/>
<path d="M181.071 138.302C181.071 129.523 184.133 122.33 190.2 116.618C196.267 110.906 203.503 108.05 211.853 108.05C221.093 108.05 228.718 110.906 234.786 116.671C240.853 122.383 243.859 129.628 243.859 138.408C243.859 147.187 240.853 154.327 234.897 160.092C228.941 165.856 221.371 168.712 212.298 168.712C203.225 168.712 195.71 165.856 189.866 160.145C183.966 154.433 181.071 147.187 181.071 138.355M212.521 119.897C207.288 119.791 203.113 121.537 199.885 125.027C196.657 128.518 195.098 133.066 195.098 138.672C195.098 143.961 196.712 148.298 199.996 151.735C203.281 155.173 207.4 156.918 212.354 156.918C217.586 156.918 221.816 155.226 224.989 151.788C228.217 148.351 229.832 143.855 229.832 138.249C229.832 132.643 228.273 128.306 225.1 124.974C221.927 121.642 217.753 119.897 212.521 119.844" fill="#2F5243"/>
<path d="M254.991 108.683H275.531C281.765 108.683 286.719 110.27 290.337 113.39C293.955 116.51 295.792 120.741 295.792 126.083C295.792 129.098 294.957 132.271 293.287 135.55C291.617 138.829 288.556 141.421 284.103 143.272L301.525 167.97H286.107L269.964 145.07H268.462V167.97H255.047V108.736L254.991 108.683ZM268.517 119.261V134.704H271.412C278.425 134.704 281.932 132.007 281.932 126.559C281.932 124.338 281.041 122.593 279.205 121.27C277.368 119.948 274.863 119.314 271.579 119.314H268.462L268.517 119.261Z" fill="#2F5243"/>
<path d="M378.562 108.683H399.102C405.336 108.683 410.29 110.27 413.908 113.39C417.526 116.51 419.363 120.741 419.363 126.083C419.363 129.098 418.528 132.271 416.858 135.55C415.188 138.829 412.127 141.421 407.674 143.272L425.096 167.97H409.677L393.535 145.07H392.032V167.97H378.618V108.736L378.562 108.683ZM392.144 119.261V134.704H395.038C402.052 134.704 405.558 132.007 405.558 126.559C405.558 124.338 404.668 122.593 402.831 121.27C400.994 119.948 398.489 119.314 395.205 119.314H392.088L392.144 119.261Z" fill="#2F5243"/>
<path d="M335.868 134.757L338.652 128.093L342.715 137.56L342.826 137.771L346.166 145.546L350.786 156.282L351.009 156.864L351.064 156.97L355.74 167.917H369.266L343.884 108.683H333.475L308.482 167.917H321.953L326.462 157.234L335.868 134.757Z" fill="#2F5243"/>
<path d="M158.972 94.7746C158.861 87.529 155.41 80.7594 149.343 76.3168C144.834 72.9849 139.491 71.4512 133.813 71.4512C130.863 71.4512 127.913 71.4512 124.963 71.4512H106.149V0.634646C106.149 0.634646 106.149 0.21155 106.149 0L91.5093 5.87052V76.3697C91.5093 78.9083 92.6783 80.7594 94.4038 81.87C95.6284 83.298 97.4653 84.25 99.5804 84.25C111.659 84.25 123.794 84.5673 135.928 84.3028C135.928 84.3028 135.761 84.3028 135.705 84.3028C134.759 84.0913 136.819 84.3028 135.928 84.3028C136.206 84.3028 136.485 84.4086 136.763 84.4615C137.375 84.6202 137.988 84.7788 138.544 84.9904C138.266 84.9375 139.435 85.3606 139.769 85.5193C140.047 85.6779 140.381 85.8366 140.66 86.0481C140.715 86.0481 141.049 86.3126 141.272 86.4184C141.16 86.3655 141.105 86.2597 141.049 86.2597C141.049 86.2597 141.16 86.3126 141.272 86.4184C141.383 86.4712 141.439 86.577 141.494 86.577C141.494 86.577 141.383 86.577 141.327 86.4712C141.439 86.577 141.494 86.6299 141.55 86.6828C141.828 86.8943 142.051 87.1059 142.274 87.3703C142.496 87.5819 142.775 87.8463 142.997 88.1108C142.997 88.1108 143.109 88.2694 143.22 88.3223C143.164 88.2165 143.109 88.1636 143.109 88.1636C143.109 88.1636 143.164 88.2165 143.331 88.4281C143.498 88.6925 143.721 88.9041 143.331 88.4281C143.498 88.6396 143.721 88.957 143.721 89.0098C143.888 89.2743 144.111 89.5387 144.278 89.856C144.445 90.1205 144.612 90.4378 144.779 90.7022C144.667 90.0676 145.335 91.6542 144.779 90.7022C144.89 91.3369 145.224 91.9715 145.391 92.6062C145.447 92.8706 145.502 93.1351 145.558 93.3995C145.558 92.5533 145.836 94.5102 145.558 93.6111C145.558 93.5582 145.558 93.4524 145.558 93.3995C145.558 93.8755 145.558 94.3515 145.558 94.8275C145.558 95.1977 145.558 95.515 145.558 95.8852V109.319C148.619 108.314 151.903 107.838 155.354 107.838C156.579 107.838 157.804 107.891 159.028 108.049V97.3661C159.028 96.467 159.028 95.6208 159.028 94.7217" fill="#2F5243"/>
<path d="M154.742 168.765C151.458 168.765 148.397 168.289 145.502 167.443V175.429C145.502 176.487 145.502 177.597 145.502 178.655C145.502 179.025 145.502 179.395 145.502 179.766C145.502 179.871 145.502 179.924 145.502 179.977C145.502 179.871 145.502 179.766 145.558 179.66C145.558 179.977 145.502 180.665 145.502 179.977C145.502 180.189 145.447 180.4 145.391 180.559C145.224 181.194 145.057 181.828 144.834 182.463C144.834 182.463 144.445 183.362 144.222 183.679C143.944 184.155 143.61 184.578 143.331 185.002C143.665 184.42 142.83 185.583 142.497 185.901C142.274 186.112 141.996 186.377 141.773 186.588C141.606 186.747 141.161 187.064 140.994 187.117C140.994 187.117 141.105 187.117 141.161 187.011C140.715 187.276 140.27 187.593 139.769 187.857C139.268 188.122 137.543 188.651 139.045 188.281C138.378 188.492 137.71 188.704 137.042 188.862C136.708 188.915 136.318 189.021 135.984 189.074C135.984 189.074 135.928 189.074 135.873 189.074C134.537 189.338 136.986 189.074 135.873 189.074H135.65C134.871 189.074 134.091 189.074 133.312 189.074H99.5806C97.0758 189.074 94.6267 190.555 93.5134 192.67C92.4558 193.781 91.7322 195.315 91.7322 197.219V256.453L92.1774 256.294L106.427 250.582V201.926H130.529C133.591 201.926 136.541 201.926 139.602 201.397C151.347 199.334 159.084 188.862 159.084 177.862C159.084 174.688 159.084 171.515 159.084 168.342C157.581 168.501 156.134 168.606 154.798 168.606" fill="#2F5243"/>
<path d="M66.8509 266.555V197.378C66.8509 195.95 66.4613 194.787 65.8491 193.782C64.9585 191.19 62.5093 189.181 59.4479 189.181C47.3691 189.181 35.2346 188.863 23.1002 189.128C23.1002 189.128 23.267 189.128 23.3227 189.128C24.2689 189.339 22.2095 189.128 23.1002 189.128C22.8218 189.128 22.5434 189.022 22.2651 188.969C21.6528 188.81 21.0406 188.652 20.484 188.44C20.3727 188.387 19.482 188.017 19.2037 187.858C18.9254 187.7 18.5914 187.541 18.3131 187.329C18.2574 187.329 17.9235 187.065 17.7009 186.959C17.8122 187.012 17.8677 187.118 17.9234 187.171C17.9234 187.171 17.8122 187.065 17.7009 187.012C17.3112 186.748 17.4225 186.801 17.6451 186.906C17.5338 186.801 17.4781 186.748 17.4224 186.695C17.1441 186.483 16.9215 186.272 16.6988 186.007C16.4762 185.796 16.198 185.531 15.9753 185.32C15.9753 185.32 15.8083 185.161 15.7526 185.055C15.8083 185.161 15.864 185.214 15.9196 185.267C15.9196 185.267 15.8082 185.161 15.6969 185.002C15.6413 184.897 15.5299 184.844 15.5299 184.791C15.5299 184.791 15.6413 184.897 15.7526 185.002C15.5856 184.791 15.363 184.474 15.363 184.474C15.196 184.209 14.9733 183.892 14.8063 183.627C14.6393 183.363 14.4723 183.046 14.3054 182.728C14.361 183.151 14.0827 182.517 14.0827 182.411C14.0827 182.411 14.194 182.464 14.3054 182.728C14.194 182.094 13.8601 181.459 13.6931 180.824C13.6375 180.56 13.5818 180.295 13.5262 179.978C13.5262 180.877 13.2478 178.92 13.5262 179.819C13.5262 179.872 13.5262 179.925 13.5262 179.978C13.5262 179.502 13.5262 179.026 13.5262 178.603C13.5262 178.233 13.5262 177.915 13.5262 177.545V98.0552C13.5262 96.9974 13.5262 95.8868 13.5262 94.829C13.5262 94.4588 13.5262 94.0886 13.5262 93.7184V93.5069C13.5262 93.5069 13.5261 93.7184 13.4704 93.8242C13.4704 93.5068 13.5262 92.7664 13.5262 93.5069C13.5262 93.2953 13.5818 93.0837 13.6374 92.8722C13.8044 92.2375 13.9714 91.6029 14.1941 90.9682C14.1941 91.0211 14.5836 90.0692 14.8063 89.7518C15.0846 89.2758 15.4186 88.8527 15.6969 88.4296C15.3629 89.0114 16.1978 87.8479 16.5318 87.5305C16.7545 87.319 17.0328 87.0546 17.2555 86.843C17.4225 86.6843 17.8678 86.367 18.0348 86.3141C18.0348 86.3141 18.0348 86.3141 17.9791 86.3141C18.3687 86.0497 18.8141 85.7852 19.2594 85.5208C19.5934 85.3621 20.4839 85.0448 20.5953 84.9919C20.5953 84.9919 20.4283 84.9919 20.2613 85.0448C20.8736 84.8862 21.4303 84.6746 22.0425 84.516C22.3765 84.4102 22.7662 84.3573 23.1002 84.3044C23.1002 84.3044 23.1558 84.3044 23.2114 84.3044C22.0982 84.3044 24.4917 84.04 23.2114 84.3044H23.4341C24.2134 84.3044 24.9926 84.3044 25.7719 84.3044H59.5034C62.2309 84.3044 64.8471 82.5591 65.8491 80.1263C66.517 79.1214 66.9067 77.905 66.9067 76.4242V15.8149L52.2116 21.7383V71.4527H28.555C25.4935 71.4527 22.5434 71.4527 19.4819 71.9816C7.73711 74.0442 0 84.5159 0 95.5166C0 100.118 0 104.772 0 109.373V176.117C0 177.016 0 177.863 0 178.762C0.111325 186.007 3.56247 192.777 9.62971 197.219C14.1384 200.551 19.482 202.085 25.1596 202.085C28.1098 202.085 31.0599 202.085 34.01 202.085H52.2116V272.531L52.8796 272.267L66.9067 266.608L66.8509 266.555Z" fill="#97AEA1"/>
<path d="M213.188 193.515H198.047C198.103 194.837 198.604 195.895 199.383 196.688C200.218 197.482 201.165 197.905 202.222 197.905C204.17 197.905 205.673 197.058 206.787 195.366L212.575 197.217C210.405 200.813 207.065 202.612 202.5 202.612C199.161 202.612 196.489 201.66 194.541 199.703C192.537 197.799 191.591 195.207 191.591 191.928C191.591 189.02 192.648 186.534 194.708 184.577C196.767 182.567 199.383 181.615 202.389 181.615C205.395 181.615 208.011 182.673 210.071 184.736C212.13 186.851 213.132 189.443 213.132 192.563V193.515H213.188ZM198.103 189.495H206.675C206.063 186.957 204.727 185.74 202.612 185.74C201.387 185.74 200.385 186.058 199.606 186.745C198.827 187.38 198.326 188.332 198.159 189.548" fill="#97AEA1"/>
<path d="M224.487 181.986V184.366C226.658 182.462 228.94 181.458 231.278 181.458C233.282 181.458 235.007 182.251 236.288 183.837C237.624 185.424 238.291 187.434 238.291 189.92V202.189H231.89V190.872C231.89 189.708 231.556 188.756 230.888 187.91C230.22 187.117 229.385 186.693 228.439 186.693C227.27 186.693 226.324 187.222 225.6 188.227C224.877 189.232 224.487 190.554 224.487 192.141V202.137H218.142V181.934H224.487V181.986Z" fill="#97AEA1"/>
<path d="M258.665 201.025V198.645C256.773 200.919 254.602 202.083 252.097 202.083C249.425 202.083 247.199 201.131 245.417 199.121C243.636 197.164 242.746 194.731 242.746 191.769C242.746 188.808 243.692 186.481 245.529 184.524C247.366 182.514 249.592 181.509 252.208 181.509C254.435 181.509 256.55 182.62 258.665 184.788V181.985H264.955V202.4C264.955 203.511 264.565 204.833 263.842 206.261C263.118 207.742 261.838 208.799 260.001 209.487C258.22 210.174 256.105 210.545 253.711 210.545C250.761 210.545 248.423 210.016 246.642 208.958C244.861 207.9 243.581 206.102 242.801 203.563H249.87C251.262 205.414 252.765 206.314 254.379 206.314C255.659 206.314 256.661 205.838 257.44 204.833C258.22 203.828 258.61 202.559 258.61 200.972M249.481 191.981C249.481 193.039 249.982 194.044 250.928 194.996C251.874 196.001 252.988 196.476 254.268 196.476C255.548 196.476 256.55 196 257.44 195.101C258.331 194.149 258.776 193.039 258.776 191.664C258.776 190.289 258.331 189.125 257.496 188.279C256.661 187.38 255.604 186.957 254.268 186.957C252.932 186.957 251.819 187.433 250.872 188.332C249.982 189.284 249.481 190.5 249.481 191.981Z" fill="#97AEA1"/>
<path d="M291.06 193.515H275.919C275.975 194.837 276.476 195.895 277.255 196.688C278.09 197.482 279.036 197.905 280.094 197.905C282.042 197.905 283.545 197.058 284.658 195.366L290.447 197.217C288.277 200.813 284.937 202.612 280.372 202.612C277.033 202.612 274.361 201.66 272.413 199.703C270.409 197.799 269.462 195.207 269.462 191.928C269.462 189.02 270.52 186.534 272.579 184.577C274.639 182.567 277.255 181.615 280.261 181.615C283.267 181.615 285.883 182.673 287.942 184.736C290.002 186.851 291.004 189.443 291.004 192.563V193.515H291.06ZM275.975 189.495H284.547C283.935 186.957 282.599 185.74 280.484 185.74C279.259 185.74 278.257 186.058 277.478 186.745C276.699 187.38 276.198 188.332 276.031 189.548" fill="#97AEA1"/>
<path d="M302.359 181.986V184.366C304.53 182.462 306.812 181.458 309.15 181.458C311.154 181.458 312.88 182.251 314.16 183.837C315.496 185.424 316.164 187.434 316.164 189.92V202.189H309.763V190.872C309.763 189.708 309.429 188.756 308.761 187.91C308.093 187.117 307.258 186.693 306.311 186.693C305.142 186.693 304.196 187.222 303.473 188.227C302.749 189.232 302.359 190.554 302.359 192.141V202.137H296.014V181.934H302.359V181.986Z" fill="#97AEA1"/>
<path d="M322.899 170.827H329.3V184.314C330.469 183.362 331.527 182.674 332.529 182.251C333.531 181.828 334.644 181.616 335.98 181.616C338.206 181.616 339.932 182.357 341.212 183.891C342.492 185.424 343.105 187.54 343.105 190.237V202.137H336.704V191.295C336.704 189.973 336.37 188.915 335.646 188.016C334.922 187.117 334.087 186.694 333.085 186.694C331.805 186.694 330.859 187.222 330.247 188.227C329.634 189.232 329.356 190.819 329.356 192.987V202.137H322.955V170.774L322.899 170.827Z" fill="#97AEA1"/>
<path d="M363.366 202.188V198.751H363.255C362.253 200.073 361.251 201.078 360.249 201.66C359.247 202.241 358.022 202.559 356.519 202.559C354.015 202.559 351.899 201.554 350.174 199.491C348.448 197.482 347.558 194.996 347.558 192.087C347.558 189.178 348.504 186.745 350.341 184.683C352.178 182.62 354.404 181.615 356.965 181.615C358.189 181.615 359.302 181.88 360.249 182.409C361.195 182.937 362.253 183.731 363.366 184.894V182.091H369.711V202.241H363.366V202.188ZM358.746 187.592C357.466 187.592 356.464 188.068 355.629 189.019C354.794 189.971 354.348 191.135 354.348 192.616C354.348 193.938 354.738 195.049 355.573 195.895C356.352 196.741 357.41 197.111 358.746 197.111C360.082 197.111 361.084 196.635 361.974 195.683C362.865 194.731 363.31 193.568 363.31 192.246C363.31 190.976 362.865 189.919 361.974 188.967C361.084 188.068 360.026 187.592 358.802 187.592" fill="#97AEA1"/>
<path d="M382.013 181.987V184.948H382.124C382.737 183.944 383.46 183.15 384.295 182.569C385.13 181.987 385.909 181.669 386.633 181.669C387.078 181.669 387.468 181.669 387.802 181.775V188.333C387.301 188.228 386.744 188.175 386.243 188.175C384.963 188.175 383.906 188.598 383.238 189.497C382.514 190.343 382.18 191.559 382.18 193.146V202.137H375.779V181.934H382.124L382.013 181.987Z" fill="#97AEA1"/>
<path d="M391.309 174.475C391.309 173.47 391.698 172.571 392.478 171.831C393.257 171.09 394.203 170.72 395.261 170.72C396.318 170.72 397.265 171.09 398.044 171.831C398.823 172.571 399.213 173.47 399.213 174.475C399.213 175.48 398.823 176.379 398.044 177.12C397.265 177.86 396.318 178.23 395.261 178.23C394.203 178.23 393.257 177.86 392.478 177.12C391.698 176.379 391.309 175.48 391.309 174.475ZM392.144 181.985H398.489V202.188H392.144V181.985Z" fill="#97AEA1"/>
<path d="M419.084 202.188V198.751H418.973C417.971 200.073 416.969 201.078 415.967 201.66C414.965 202.241 413.74 202.559 412.237 202.559C409.733 202.559 407.618 201.554 405.892 199.491C404.166 197.482 403.276 194.996 403.276 192.087C403.276 189.178 404.222 186.745 406.059 184.683C407.896 182.62 410.122 181.615 412.683 181.615C413.907 181.615 415.021 181.88 415.967 182.409C416.913 182.937 417.971 183.731 419.084 184.894V182.091H425.43V202.241H419.084V202.188ZM414.464 187.592C413.184 187.592 412.182 188.068 411.347 189.019C410.512 189.971 410.067 191.135 410.067 192.616C410.067 193.938 410.456 195.049 411.291 195.895C412.071 196.741 413.128 197.111 414.464 197.111C415.8 197.111 416.802 196.635 417.692 195.683C418.583 194.731 419.028 193.568 419.028 192.246C419.028 190.976 418.583 189.919 417.692 188.967C416.802 188.068 415.744 187.592 414.52 187.592" fill="#97AEA1"/>
</svg>
