<svg width="35" height="45" viewBox="0 0 35 45" fill="none" xmlns="http://www.w3.org/2000/svg">
<path d="M1.16002 44.43C1.11002 44.49 1.03002 44.53 0.940022 44.53C0.850022 44.53 0.770022 44.5 0.710022 44.43C0.660022 44.37 0.63002 44.28 0.63002 44.19V41.61C0.63002 41.39 0.730022 41.28 0.940022 41.28H1.74002C2.11002 41.28 2.41002 41.37 2.62002 41.54C2.83002 41.71 2.94002 41.98 2.94002 42.33C2.94002 42.57 2.89002 42.78 2.79002 42.94C2.69002 43.1 2.55002 43.22 2.39002 43.29L2.79002 43.96C2.85002 44.06 2.88002 44.15 2.88002 44.23C2.88002 44.31 2.85002 44.38 2.78002 44.44C2.71002 44.49 2.64002 44.52 2.55002 44.52C2.49002 44.52 2.44002 44.5 2.39002 44.45C2.35002 44.41 2.30002 44.34 2.25002 44.25L1.73002 43.37H1.23002V44.17C1.23002 44.27 1.21002 44.35 1.15002 44.41L1.16002 44.43ZM1.24002 41.83V42.85H1.87002C2.03002 42.85 2.16002 42.81 2.25002 42.71C2.34002 42.61 2.38002 42.5 2.38002 42.34C2.38002 42.18 2.32002 42.05 2.21002 41.96C2.10002 41.87 1.96002 41.83 1.78002 41.83H1.24002Z" fill="white"/>
<path d="M7.44002 44.53H6.11002C5.90002 44.53 5.80002 44.42 5.80002 44.2V41.61C5.80002 41.39 5.90002 41.28 6.11002 41.28H7.42001C7.50001 41.28 7.56002 41.31 7.61002 41.36C7.66002 41.41 7.69002 41.48 7.69002 41.57C7.69002 41.66 7.67002 41.72 7.62002 41.77C7.57002 41.82 7.51002 41.85 7.43002 41.85H6.40002V42.63H7.31001C7.39001 42.63 7.45002 42.66 7.50002 42.71C7.55002 42.76 7.58002 42.83 7.58002 42.92C7.58002 43.01 7.56002 43.07 7.51002 43.12C7.46002 43.17 7.40001 43.2 7.32001 43.2H6.41002V43.98H7.44002C7.52002 43.98 7.58002 44 7.63002 44.06C7.68002 44.11 7.71001 44.18 7.71001 44.27C7.71001 44.36 7.69001 44.42 7.64001 44.47C7.59001 44.52 7.53002 44.54 7.45002 44.54L7.44002 44.53Z" fill="white"/>
<path d="M11.06 44.43C11.01 44.49 10.93 44.53 10.84 44.53C10.75 44.53 10.67 44.5 10.61 44.43C10.56 44.37 10.53 44.28 10.53 44.19V41.68C10.53 41.55 10.56 41.45 10.61 41.39C10.66 41.32 10.73 41.29 10.82 41.29C10.92 41.29 11 41.32 11.07 41.38C11.14 41.44 11.23 41.55 11.35 41.73L12.55 43.52V41.63C12.54 41.53 12.56 41.45 12.61 41.39C12.66 41.33 12.74 41.29 12.84 41.29C12.94 41.29 13.01 41.32 13.06 41.39C13.11 41.46 13.14 41.54 13.14 41.63V44.14C13.14 44.27 13.11 44.37 13.06 44.43C13.01 44.5 12.93 44.53 12.83 44.53C12.73 44.53 12.64 44.49 12.56 44.41C12.48 44.33 12.35 44.16 12.18 43.91L11.13 42.35V44.2C11.14 44.3 11.12 44.38 11.07 44.44L11.06 44.43Z" fill="white"/>
<path d="M17.39 44.43C17.34 44.49 17.27 44.53 17.17 44.53C17.07 44.53 17 44.5 16.94 44.43C16.89 44.37 16.86 44.28 16.86 44.19V41.85H16.1C16.03 41.85 15.97 41.82 15.91 41.77C15.85 41.72 15.83 41.65 15.83 41.57C15.83 41.49 15.86 41.42 15.91 41.37C15.96 41.31 16.03 41.29 16.1 41.29H18.21C18.28 41.29 18.35 41.32 18.4 41.37C18.45 41.43 18.48 41.49 18.48 41.57C18.48 41.65 18.45 41.71 18.4 41.77C18.35 41.82 18.29 41.85 18.21 41.85H17.46V44.19C17.46 44.29 17.43 44.37 17.38 44.43H17.39Z" fill="white"/>
<path d="M21.71 44.43C21.66 44.49 21.58 44.53 21.49 44.53C21.4 44.53 21.32 44.5 21.26 44.43C21.21 44.37 21.18 44.28 21.18 44.19V41.62C21.18 41.52 21.2 41.44 21.26 41.38C21.31 41.32 21.39 41.28 21.49 41.28C21.59 41.28 21.66 41.31 21.71 41.38C21.76 41.45 21.79 41.53 21.79 41.62V42.62H23.23V41.62C23.23 41.52 23.26 41.44 23.31 41.38C23.36 41.32 23.44 41.28 23.54 41.28C23.64 41.28 23.71 41.31 23.76 41.38C23.81 41.45 23.84 41.53 23.84 41.62V44.19C23.84 44.29 23.82 44.37 23.76 44.43C23.7 44.49 23.63 44.53 23.54 44.53C23.45 44.53 23.37 44.5 23.31 44.43C23.25 44.36 23.23 44.28 23.23 44.19V43.19H21.79V44.19C21.79 44.29 21.77 44.37 21.71 44.43Z" fill="white"/>
<path d="M29.25 44.12C29.29 44.23 29.28 44.32 29.23 44.41C29.17 44.49 29.09 44.53 28.98 44.53C28.9 44.53 28.84 44.51 28.8 44.46C28.76 44.42 28.72 44.34 28.69 44.24L28.53 43.78C28.53 43.78 28.5 43.78 28.48 43.78H27.35L27.2 44.23C27.17 44.33 27.13 44.4 27.09 44.45C27.05 44.49 26.99 44.52 26.91 44.52C26.79 44.52 26.71 44.48 26.66 44.4C26.6 44.32 26.6 44.22 26.64 44.11L27.41 41.93C27.5 41.68 27.58 41.51 27.65 41.42C27.72 41.33 27.82 41.28 27.96 41.28C28.1 41.28 28.2 41.33 28.27 41.42C28.33 41.51 28.41 41.69 28.5 41.95L29.27 44.12H29.25ZM27.54 43.23H28.33L27.94 42.1L27.55 43.23H27.54Z" fill="white"/>
<path d="M33.6 44.53H32.35C32.14 44.53 32.04 44.42 32.04 44.2V41.6C32.04 41.52 32.07 41.44 32.13 41.38C32.19 41.32 32.26 41.28 32.34 41.28C32.42 41.28 32.49 41.31 32.55 41.37C32.61 41.43 32.64 41.51 32.64 41.59V43.96H33.59C33.67 43.96 33.73 43.98 33.78 44.04C33.83 44.09 33.86 44.16 33.86 44.25C33.86 44.34 33.84 44.4 33.79 44.45C33.74 44.5 33.68 44.52 33.6 44.52V44.53Z" fill="white"/>
<path d="M33.01 35.39L22.78 29.24C27.83 28.18 31.2 24.97 32.86 21.05C33.65 19.19 34.04 17.18 34.04 15.17C34.04 13.15 33.64 11.13 32.84 9.27C30.76 4.42 26.06 0.619995 18.73 0.619995H2.16002C1.11002 0.619995 0.27002 1.46999 0.27002 2.50999C0.27002 3.54999 1.12002 4.39999 2.16002 4.39999H18.73C24.31 4.39999 27.84 7.19 29.36 10.74C29.96 12.14 30.26 13.65 30.26 15.16C30.26 16.68 29.97 18.19 29.38 19.58C27.89 23.08 24.45 25.82 19.06 25.82H16.58C15.53 25.82 14.69 26.67 14.69 27.71C14.69 28.45 15.12 29.1 15.74 29.41L31.07 38.62C31.96 39.15 33.12 38.86 33.66 37.97C34.19 37.08 33.9 35.92 33.01 35.38V35.39Z" fill="white"/>
<path d="M18.93 35.09H4.16002L4.08002 16.86H18.93C19.98 16.86 20.82 16.01 20.82 14.97C20.82 13.93 19.97 13.08 18.93 13.08H2.19002C1.14002 13.08 0.300018 13.93 0.300018 14.97C0.300018 15.03 0.300018 15.09 0.300018 15.15L0.400017 37C0.400017 38.04 1.25002 38.88 2.29002 38.88H18.94C19.99 38.88 20.83 38.03 20.83 36.99C20.83 35.95 19.98 35.1 18.94 35.1L18.93 35.09Z" fill="white"/>
<path d="M2.16002 6.72998C1.11002 6.72998 0.27002 7.57998 0.27002 8.61998C0.27002 9.65998 1.12002 10.51 2.16002 10.51H18.72C21.16 10.51 22.71 11.68 23.36 13.2C23.62 13.8 23.75 14.45 23.75 15.1C23.75 15.75 23.62 16.4 23.37 16.99C22.72 18.48 21.18 19.65 18.72 19.65H9.58002C8.53002 19.65 7.69002 20.5 7.69002 21.54V31.34C7.69002 32.39 8.54002 33.23 9.58002 33.23C10.62 33.23 11.47 32.38 11.47 31.34V23.43H18.72C22.92 23.43 25.63 21.26 26.83 18.48C27.3 17.41 27.53 16.25 27.52 15.09C27.52 13.93 27.28 12.77 26.82 11.7C25.61 8.90998 22.89 6.72998 18.72 6.72998H2.16002Z" fill="white"/>
</svg>
