<svg width="35" height="46" viewBox="0 0 35 46" fill="none" xmlns="http://www.w3.org/2000/svg">
<path d="M1.64 43.8501C1.59 43.9101 1.51 43.9501 1.42 43.9501C1.33 43.9501 1.25 43.9201 1.19 43.8501C1.13 43.7801 1.11 43.7001 1.11 43.6101V41.0301C1.11 40.8101 1.21 40.7001 1.42 40.7001H2.22C2.59 40.7001 2.89 40.7901 3.1 40.9601C3.31 41.1301 3.42 41.4001 3.42 41.7501C3.42 41.9901 3.37 42.2001 3.27 42.3601C3.17 42.5201 3.03 42.6401 2.87 42.7101L3.27 43.3801C3.33 43.4801 3.36 43.5701 3.36 43.6501C3.36 43.7301 3.33 43.8001 3.26 43.8601C3.19 43.9101 3.12 43.9401 3.03 43.9401C2.97 43.9401 2.92 43.9201 2.87 43.8701C2.83 43.8301 2.78 43.7601 2.73 43.6701L2.21 42.7901H1.71V43.5901C1.71 43.6901 1.68 43.7701 1.63 43.8301L1.64 43.8501ZM1.72 41.2401V42.2601H2.35C2.51 42.2601 2.64 42.2201 2.73 42.1201C2.82 42.0301 2.86 41.9101 2.86 41.7501C2.86 41.5901 2.81 41.4601 2.7 41.3701C2.59 41.2801 2.45 41.2401 2.27 41.2401H1.73H1.72Z" fill="white"/>
<path d="M6.13 43.9401H4.8C4.59 43.9401 4.48999 43.8301 4.48999 43.6101V41.0201C4.48999 40.8001 4.59 40.6901 4.8 40.6901H6.10999C6.18999 40.6901 6.25 40.7201 6.3 40.7701C6.35 40.8201 6.38 40.8901 6.38 40.9801C6.38 41.0701 6.35999 41.1301 6.30999 41.1801C6.25999 41.2301 6.2 41.2601 6.12 41.2601H5.09V42.0401H5.98999C6.06999 42.0401 6.12999 42.0701 6.17999 42.1201C6.22999 42.1701 6.25999 42.2401 6.25999 42.3301C6.25999 42.4201 6.23999 42.4801 6.18999 42.5301C6.13999 42.5801 6.07999 42.6101 5.99999 42.6101H5.09V43.3901H6.12C6.2 43.3901 6.25999 43.4101 6.30999 43.4701C6.35999 43.5201 6.38999 43.5901 6.38999 43.6801C6.38999 43.7701 6.36999 43.8301 6.31999 43.8801C6.26999 43.9301 6.21 43.9501 6.13 43.9501V43.9401Z" fill="white"/>
<path d="M9.84 43.5301C9.88 43.6401 9.86999 43.7301 9.81999 43.8201C9.76999 43.9001 9.67999 43.9401 9.56999 43.9401C9.48999 43.9401 9.42999 43.9201 9.38999 43.8701C9.34999 43.8301 9.30999 43.7501 9.27999 43.6501L9.12 43.1901C9.12 43.1901 9.08999 43.1901 9.06999 43.1901H7.94L7.77999 43.6401C7.74999 43.7401 7.70999 43.8101 7.66999 43.8601C7.62999 43.9001 7.56999 43.9301 7.48999 43.9301C7.36999 43.9301 7.28999 43.8901 7.23999 43.8101C7.18999 43.7301 7.18 43.6301 7.22 43.5201L7.98999 41.3401C8.07999 41.0901 8.16 40.9201 8.23 40.8301C8.3 40.7401 8.4 40.6901 8.54 40.6901C8.68 40.6901 8.77999 40.7401 8.84999 40.8301C8.91999 40.9201 8.99 41.1001 9.08 41.3601L9.84999 43.5301H9.84ZM8.13 42.6401H8.91999L8.52999 41.5101L8.13999 42.6401H8.13Z" fill="white"/>
<path d="M12.4 43.9401H11.15C10.94 43.9401 10.84 43.8301 10.84 43.6101V41.0101C10.84 40.9301 10.87 40.8501 10.93 40.7901C10.99 40.7301 11.06 40.6901 11.14 40.6901C11.22 40.6901 11.29 40.7201 11.35 40.7801C11.41 40.8401 11.44 40.9201 11.44 41.0001V43.3701H12.39C12.47 43.3701 12.53 43.3901 12.58 43.4501C12.63 43.5001 12.66 43.5701 12.66 43.6601C12.66 43.7501 12.64 43.8101 12.59 43.8601C12.54 43.9101 12.48 43.9301 12.4 43.9301V43.9401Z" fill="white"/>
<path d="M14.1 43.8501C14.05 43.9101 13.97 43.9501 13.88 43.9501C13.79 43.9501 13.71 43.9201 13.65 43.8501C13.59 43.7801 13.57 43.7001 13.57 43.6101V41.0401C13.57 40.9401 13.6 40.8601 13.65 40.8001C13.7 40.7401 13.78 40.7001 13.88 40.7001C13.98 40.7001 14.05 40.7301 14.1 40.8001C14.15 40.8601 14.18 40.9501 14.18 41.0401V43.6101C14.18 43.7101 14.15 43.7901 14.1 43.8501Z" fill="white"/>
<path d="M17.53 43.9401H15.47C15.39 43.9401 15.31 43.9101 15.25 43.8501C15.19 43.7901 15.16 43.7101 15.16 43.6201C15.16 43.5401 15.18 43.4701 15.23 43.4101L16.93 41.2601H15.51C15.43 41.2601 15.36 41.2401 15.3 41.1901C15.24 41.1401 15.22 41.0701 15.22 40.9801C15.22 40.8901 15.25 40.8201 15.3 40.7701C15.36 40.7201 15.42 40.7001 15.51 40.7001H17.46C17.55 40.7001 17.62 40.7301 17.68 40.7901C17.74 40.8501 17.77 40.9301 17.77 41.0201C17.77 41.0901 17.74 41.1601 17.69 41.2301L15.99 43.3801H17.53C17.61 43.3801 17.68 43.4001 17.74 43.4501C17.8 43.5001 17.82 43.5701 17.82 43.6601C17.82 43.7501 17.79 43.8201 17.74 43.8701C17.68 43.9201 17.61 43.9401 17.53 43.9401Z" fill="white"/>
<path d="M21.2 43.5301C21.24 43.6401 21.23 43.7301 21.18 43.8201C21.13 43.9001 21.04 43.9401 20.93 43.9401C20.85 43.9401 20.79 43.9201 20.75 43.8701C20.71 43.8301 20.67 43.7501 20.64 43.6501L20.48 43.1901C20.48 43.1901 20.45 43.1901 20.43 43.1901H19.3L19.14 43.6401C19.11 43.7401 19.07 43.8101 19.03 43.8601C18.99 43.9001 18.93 43.9301 18.85 43.9301C18.73 43.9301 18.65 43.8901 18.6 43.8101C18.55 43.7301 18.54 43.6301 18.58 43.5201L19.35 41.3401C19.44 41.0901 19.52 40.9201 19.59 40.8301C19.66 40.7401 19.76 40.6901 19.9 40.6901C20.04 40.6901 20.14 40.7401 20.21 40.8301C20.28 40.9201 20.35 41.1001 20.44 41.3601L21.21 43.5301H21.2ZM19.49 42.6401H20.28L19.89 41.5101L19.5 42.6401H19.49Z" fill="white"/>
<path d="M24.12 43.3C24.19 43.3 24.25 43.33 24.29 43.38C24.33 43.43 24.35 43.49 24.35 43.56C24.35 43.68 24.29 43.78 24.17 43.85C24.04 43.93 23.86 43.98 23.62 43.99L23.6 44.07C23.6 44.07 23.63 44.07 23.64 44.08C23.66 44.08 23.69 44.1 23.74 44.12C23.79 44.14 23.83 44.17 23.87 44.2C23.91 44.23 23.94 44.28 23.97 44.35C24 44.42 24.01 44.49 24.01 44.58C24.01 44.73 23.96 44.85 23.85 44.96C23.74 45.07 23.59 45.12 23.39 45.12C23.27 45.12 23.17 45.1 23.09 45.05C22.99 44.99 22.94 44.92 22.94 44.82C22.94 44.75 22.96 44.69 23 44.65C23.04 44.61 23.09 44.59 23.14 44.59C23.17 44.59 23.2 44.59 23.25 44.62C23.29 44.64 23.33 44.65 23.35 44.65C23.45 44.65 23.5 44.6 23.5 44.5C23.5 44.4 23.43 44.35 23.3 44.35C23.26 44.35 23.22 44.35 23.2 44.34C23.18 44.34 23.16 44.31 23.14 44.28C23.12 44.25 23.12 44.2 23.14 44.14L23.18 43.98V43.94C22.81 43.86 22.51 43.67 22.29 43.37C22.07 43.08 21.95 42.73 21.95 42.32C21.95 41.82 22.1 41.42 22.39 41.12C22.68 40.82 23.08 40.66 23.59 40.66C23.83 40.66 24.03 40.71 24.18 40.8C24.29 40.87 24.34 40.96 24.34 41.06C24.34 41.15 24.32 41.22 24.27 41.27C24.22 41.32 24.16 41.35 24.08 41.35C24.04 41.35 23.96 41.34 23.85 41.31C23.74 41.28 23.65 41.27 23.57 41.27C23.27 41.27 23.02 41.36 22.84 41.55C22.65 41.74 22.56 42 22.56 42.33C22.56 42.66 22.65 42.92 22.85 43.11C23.04 43.3 23.28 43.39 23.57 43.39C23.67 43.39 23.77 43.37 23.88 43.34C23.98 43.31 24.06 43.29 24.11 43.29L24.12 43.3Z" fill="white"/>
<path d="M26.65 43.9801C26.17 43.9801 25.79 43.8201 25.51 43.5101C25.23 43.2001 25.09 42.8001 25.09 42.3301C25.09 41.8601 25.23 41.4501 25.51 41.1401C25.79 40.8301 26.17 40.6701 26.65 40.6701C27.13 40.6701 27.51 40.8301 27.79 41.1401C28.07 41.4501 28.21 41.8501 28.21 42.3301C28.21 42.8101 28.07 43.2001 27.79 43.5101C27.51 43.8301 27.13 43.9801 26.64 43.9801H26.65ZM26.65 43.4101C26.95 43.4101 27.19 43.3101 27.35 43.1201C27.51 42.9201 27.6 42.6601 27.6 42.3201C27.6 41.9801 27.52 41.7201 27.35 41.5201C27.18 41.3201 26.95 41.2301 26.65 41.2301C26.35 41.2301 26.12 41.3301 25.96 41.5301C25.79 41.7301 25.71 41.9901 25.71 42.3301C25.71 42.6701 25.79 42.9301 25.96 43.1201C26.13 43.3201 26.36 43.4101 26.65 43.4101ZM26.29 39.6201C26.41 39.6201 26.51 39.6401 26.61 39.6801C26.7 39.7201 26.78 39.7601 26.85 39.8001C26.91 39.8401 26.96 39.8601 26.99 39.8601C27.02 39.8601 27.04 39.8601 27.06 39.8401C27.08 39.8301 27.09 39.8001 27.11 39.7601C27.13 39.7201 27.14 39.7001 27.15 39.6901C27.19 39.6301 27.25 39.6101 27.33 39.6101C27.41 39.6101 27.47 39.6401 27.51 39.7001C27.55 39.7601 27.57 39.8301 27.57 39.9201C27.57 40.0501 27.53 40.1701 27.44 40.2701C27.35 40.3801 27.24 40.4301 27.09 40.4301C26.96 40.4301 26.82 40.3801 26.67 40.2901C26.52 40.2001 26.41 40.1501 26.37 40.1501C26.34 40.1501 26.32 40.1501 26.3 40.1501C26.28 40.1501 26.26 40.1701 26.25 40.1801C26.24 40.2001 26.23 40.2101 26.22 40.2101C26.22 40.2101 26.21 40.2301 26.19 40.2601C26.18 40.2901 26.17 40.3001 26.17 40.3001C26.14 40.3801 26.08 40.4201 25.99 40.4201C25.91 40.4201 25.85 40.3901 25.81 40.3401C25.77 40.2901 25.75 40.2201 25.75 40.1401C25.75 39.9901 25.8 39.8601 25.9 39.7501C26 39.6401 26.13 39.5901 26.3 39.5901L26.29 39.6201Z" fill="white"/>
<path d="M30.9 43.9401H29.57C29.36 43.9401 29.26 43.8301 29.26 43.6101V41.0201C29.26 40.8001 29.36 40.6901 29.57 40.6901H30.88C30.96 40.6901 31.02 40.7201 31.07 40.7701C31.12 40.8201 31.15 40.8901 31.15 40.9801C31.15 41.0701 31.13 41.1301 31.08 41.1801C31.03 41.2301 30.97 41.2601 30.89 41.2601H29.86V42.0401H30.76C30.84 42.0401 30.9 42.0701 30.95 42.1201C31 42.1701 31.03 42.2401 31.03 42.3301C31.03 42.4201 31.01 42.4801 30.96 42.5301C30.91 42.5801 30.85 42.6101 30.77 42.6101H29.86V43.3901H30.89C30.97 43.3901 31.03 43.4101 31.08 43.4701C31.13 43.5201 31.16 43.5901 31.16 43.6801C31.16 43.7701 31.14 43.8301 31.09 43.8801C31.04 43.9301 30.98 43.9501 30.9 43.9501V43.9401Z" fill="white"/>
<path d="M34.33 42.9701C34.33 43.2801 34.22 43.5301 34 43.7101C33.78 43.8901 33.5 43.9801 33.16 43.9801C33.01 43.9801 32.84 43.9601 32.68 43.9201C32.52 43.8801 32.37 43.8301 32.26 43.7501C32.11 43.6601 32.04 43.5501 32.04 43.4201C32.04 43.3301 32.07 43.2601 32.12 43.2101C32.17 43.1601 32.24 43.1401 32.33 43.1401C32.38 43.1401 32.49 43.1801 32.66 43.2601C32.83 43.3401 32.99 43.3801 33.15 43.3801C33.33 43.3801 33.46 43.3401 33.54 43.2701C33.62 43.2001 33.66 43.1101 33.66 43.0101C33.66 42.9701 33.66 42.9401 33.64 42.9001C33.63 42.8701 33.6 42.8401 33.57 42.8101C33.54 42.7801 33.5 42.7601 33.48 42.7401C33.45 42.7201 33.41 42.7001 33.35 42.6701C33.29 42.6401 33.24 42.6301 33.21 42.6101C33.18 42.6001 33.12 42.5801 33.04 42.5501C32.96 42.5201 32.91 42.5001 32.88 42.5001C32.6 42.4001 32.39 42.2801 32.26 42.1401C32.13 42.0001 32.06 41.8001 32.06 41.5501C32.06 41.2801 32.16 41.0701 32.37 40.9001C32.57 40.7301 32.86 40.6501 33.24 40.6501C33.62 40.6501 33.88 40.7201 34.07 40.8501C34.18 40.9301 34.23 41.0201 34.23 41.1401C34.23 41.2201 34.2 41.2901 34.15 41.3401C34.1 41.3901 34.03 41.4101 33.94 41.4101C33.88 41.4101 33.77 41.3801 33.62 41.3101C33.47 41.2401 33.33 41.2101 33.2 41.2101C33.05 41.2101 32.94 41.2401 32.85 41.3001C32.76 41.3601 32.73 41.4401 32.73 41.5301C32.73 41.6101 32.76 41.6801 32.83 41.7301C32.9 41.7801 32.99 41.8301 33.12 41.8801H33.13C33.53 42.0101 33.8 42.1201 33.93 42.2101C34.16 42.3601 34.29 42.5801 34.3 42.8701V42.9401L34.33 42.9701Z" fill="white"/>
<path d="M33.46 34.8L23.23 28.65C28.28 27.59 31.65 24.38 33.31 20.46C34.1 18.6 34.49 16.59 34.49 14.58C34.49 12.56 34.09 10.54 33.29 8.68003C31.21 3.83003 26.51 0.0300293 19.18 0.0300293H2.61C1.56 0.0300293 0.720001 0.880029 0.720001 1.92003C0.720001 2.96003 1.57 3.81003 2.61 3.81003H19.18C24.76 3.81003 28.29 6.60002 29.81 10.15C30.41 11.55 30.71 13.06 30.71 14.57C30.71 16.09 30.42 17.6 29.83 18.99C28.34 22.49 24.9 25.23 19.52 25.23H17.04C15.99 25.23 15.15 26.08 15.15 27.12C15.15 27.86 15.58 28.51 16.2 28.82L31.53 38.03C32.42 38.56 33.58 38.27 34.12 37.38C34.65 36.49 34.36 35.33 33.47 34.79L33.46 34.8Z" fill="white"/>
<path d="M19.38 34.51H4.61L4.53 16.28H19.38C20.43 16.28 21.27 15.43 21.27 14.39C21.27 13.35 20.42 12.5 19.38 12.5H2.64C1.59 12.5 0.75 13.35 0.75 14.39C0.75 14.45 0.75 14.51 0.75 14.57L0.849998 36.42C0.849998 37.46 1.7 38.3 2.74 38.3H19.38C20.43 38.3 21.27 37.45 21.27 36.41C21.27 35.37 20.42 34.52 19.38 34.52V34.51Z" fill="white"/>
<path d="M2.61 6.14001C1.56 6.14001 0.720001 6.99001 0.720001 8.03001C0.720001 9.07001 1.57 9.92001 2.61 9.92001H19.17C21.61 9.92001 23.16 11.09 23.81 12.61C24.07 13.21 24.2 13.86 24.2 14.51C24.2 15.16 24.07 15.81 23.82 16.4C23.17 17.89 21.63 19.06 19.17 19.06H10.03C8.98 19.06 8.14 19.91 8.14 20.95V30.75C8.14 31.8 8.99 32.64 10.03 32.64C11.07 32.64 11.92 31.79 11.92 30.75V22.84H19.17C23.37 22.84 26.08 20.67 27.28 17.89C27.75 16.82 27.98 15.66 27.97 14.5C27.97 13.34 27.73 12.18 27.27 11.11C26.06 8.32002 23.34 6.14001 19.17 6.14001H2.61Z" fill="white"/>
</svg>
