<svg width="194" height="188" viewBox="0 0 194 188" fill="none" xmlns="http://www.w3.org/2000/svg">
<path d="M18.5384 73.2054C17.6933 73.2054 16.8828 73.5407 16.2853 74.1385C15.6877 74.7362 15.352 75.5475 15.352 76.3929V172.017C15.352 172.862 15.6877 173.673 16.2853 174.27C16.8828 174.868 17.6933 175.204 18.5384 175.204H171.485C172.33 175.204 173.14 174.868 173.738 174.27C174.335 173.673 174.671 172.862 174.671 172.017V76.3929C174.671 75.5475 174.335 74.7362 173.738 74.1385C173.14 73.5407 172.33 73.2054 171.485 73.2054H153.748L149.415 79.5803H168.298V168.829H21.7248V79.5803H87.9091L91.1592 73.2054H18.5384Z" fill="url(#paint0_linear_234_540)"/>
<path d="M3.4235 168.704C2.58133 168.704 1.77366 169.028 1.17816 169.603C0.582657 170.179 0.248108 170.959 0.248108 171.773C0.248108 180.423 8.2501 187.121 17.6493 187.121H167.02C176.419 187.121 184.421 180.423 184.421 171.773C184.421 170.959 184.086 170.179 183.491 169.603C182.895 169.028 182.088 168.704 181.246 168.704H3.4235ZM8.08498 174.843H176.584C175.015 178.219 171.865 180.982 167.02 180.982H17.6493C12.8036 180.982 9.65362 178.219 8.08498 174.843Z" fill="url(#paint1_linear_234_540)"/>
<path fill-rule="evenodd" clip-rule="evenodd" d="M93.8122 56.048C86.6209 55.1649 78.7987 57.7594 71.5232 62.848C61.8338 69.6356 52.8636 80.9024 46.7867 95.1211C46.6032 95.5494 46.5672 96.0264 46.6843 96.4774C46.8014 96.9284 47.065 97.3275 47.4337 97.6124C47.8024 97.8974 48.2553 98.0522 48.7213 98.0519C49.1872 98.0515 49.6398 97.8959 50.0081 97.6104C58.8059 90.7849 65.6861 87.1473 70.5308 86.3231C75.3797 85.4988 78.0964 86.8781 80.4725 91.0121C80.6668 91.3499 80.9511 91.6274 81.2937 91.813C81.6364 91.9986 82.0239 92.0853 82.4129 92.0635C82.802 92.0417 83.1774 91.912 83.4971 91.6892C83.8169 91.4665 84.0684 91.1595 84.2238 90.8022C88.7403 80.2949 94.5312 70.3823 101.466 61.2879C101.654 61.0424 101.785 60.7587 101.85 60.4568C101.916 60.1548 101.914 59.8421 101.845 59.5409C101.776 59.2398 101.641 58.9576 101.451 58.7144C101.26 58.4712 101.019 58.273 100.743 58.1338C98.5691 57.0469 96.2248 56.3415 93.8122 56.048ZM87.0751 60.4219C90.3595 59.8331 93.3202 60.6446 96.2262 61.5656C90.5422 69.3863 85.6629 77.7612 81.6626 86.5628C78.6137 83.3162 74.6984 81.3481 69.8284 82.1766C65.6104 82.8916 60.6059 85.5491 55.1219 89.0901C60.5344 79.4427 66.9435 71.1874 73.9414 66.288C78.3908 63.176 82.8444 61.1872 87.0751 60.4219ZM133.714 91.8027C133.244 91.798 132.787 91.9506 132.414 92.236C123.324 99.1733 113.416 104.967 102.913 109.487C102.555 109.642 102.248 109.893 102.025 110.212C101.801 110.532 101.671 110.907 101.649 111.296C101.627 111.685 101.713 112.073 101.899 112.416C102.084 112.759 102.361 113.044 102.698 113.238C106.832 115.614 108.212 118.327 107.387 123.171C106.563 128.016 102.93 134.905 96.1042 143.707C95.8219 144.075 95.6692 144.526 95.67 144.99C95.6709 145.454 95.8251 145.905 96.1088 146.272C96.3924 146.639 96.7895 146.902 97.2383 147.02C97.687 147.138 98.1621 147.104 98.5896 146.924C112.808 140.851 124.075 131.868 130.862 122.175C137.65 112.481 140.001 101.812 135.577 92.9675C135.404 92.6204 135.138 92.3281 134.809 92.1225C134.481 91.9169 134.101 91.8062 133.714 91.8027ZM132.145 97.48C134.26 104.125 132.944 111.863 127.414 119.761C122.515 126.759 114.263 133.176 104.612 138.589C108.153 133.109 110.811 128.092 111.53 123.878C112.358 119 110.394 115.088 107.144 112.039C115.946 108.039 124.323 103.164 132.145 97.48ZM75.7413 96.4497L74.3998 98.9143L69.8116 107.333L86.6798 124.051L97.185 117.898L75.7413 96.4497ZM76.7422 103.402L90.3595 117.019L87.3484 118.785L75.018 106.573L76.7422 103.402Z" fill="#FFF8EE"/>
<path fill-rule="evenodd" clip-rule="evenodd" d="M68.8603 114.882L58.8975 124.841L60.8909 126.834L70.8495 116.871L68.8603 114.882ZM56.9041 126.834L54.915 128.827L56.9041 130.816L58.8975 128.827L56.9041 126.834ZM72.8429 118.865L56.9041 134.803L58.8975 136.792L74.8363 120.854L72.8429 118.865ZM54.915 136.792L52.9216 138.786L54.915 140.779L56.9041 138.786L54.915 136.792ZM76.8255 122.851L64.8735 134.803L66.8669 136.792L78.8188 124.841L76.8255 122.851ZM62.8801 136.792L60.8909 138.786L62.8843 140.779L64.8735 138.786L62.8801 136.792Z" fill="url(#paint2_linear_234_540)"/>
<path fill-rule="evenodd" clip-rule="evenodd" d="M137.168 27.2035C136.84 27.2087 136.517 27.2909 136.226 27.4432C108.567 41.4643 89.3228 67.3911 79.3012 91.724C79.1428 92.1089 79.1022 92.5321 79.1846 92.9401C79.2669 93.3481 79.4685 93.7223 79.7638 94.0156L99.6809 113.933C99.9743 114.228 100.349 114.43 100.757 114.512C101.165 114.594 101.588 114.554 101.973 114.396C126.297 104.378 152.64 85.1423 166.674 57.4703C166.799 57.2238 166.873 56.9547 166.894 56.6793C166.915 56.4038 166.881 56.127 166.795 55.8645C166.708 55.6021 166.571 55.3594 166.391 55.1499C166.211 54.9405 165.991 54.7688 165.745 54.6443C165.498 54.5197 165.229 54.4447 164.954 54.4241C164.678 54.4034 164.401 54.4373 164.139 54.5236C163.877 54.6099 163.634 54.747 163.424 54.9271C163.215 55.1073 163.043 55.3269 162.919 55.5735C149.726 81.5969 124.804 100.055 101.586 109.891L83.8053 92.1064C93.6377 68.9133 112.087 44.3953 138.123 31.1944C138.555 30.9856 138.902 30.6357 139.107 30.2026C139.313 29.7694 139.364 29.2791 139.252 28.8129C139.141 28.3467 138.874 27.9326 138.495 27.6391C138.116 27.3456 137.648 27.1947 137.168 27.2035Z" fill="#FFF8EE"/>
<path fill-rule="evenodd" clip-rule="evenodd" d="M140.54 25.3697C140.268 25.3727 139.999 25.4282 139.749 25.5334C137.512 26.4838 133.491 28.9064 131.931 29.697C131.633 29.8476 131.375 30.067 131.178 30.3372C130.982 30.6074 130.853 30.9204 130.801 31.2505C130.75 31.5806 130.778 31.918 130.883 32.2351C130.988 32.5522 131.167 32.8398 131.405 33.0739L160.936 62.1339C161.172 62.3653 161.459 62.5381 161.774 62.638C162.088 62.7379 162.422 62.7621 162.748 62.7088C163.075 62.6556 163.383 62.5264 163.65 62.3315C163.917 62.1366 164.134 61.8816 164.284 61.5871C164.666 60.8302 165.482 59.4462 166.281 58.0542C167.08 56.658 167.867 55.2748 168.35 54.1352C168.515 53.7501 168.561 53.3242 168.482 52.9128C168.404 52.5015 168.204 52.1232 167.909 51.8261L142.058 25.9836C141.859 25.7849 141.622 25.6281 141.361 25.5226C141.1 25.4172 140.821 25.3652 140.54 25.3697ZM140.186 30.0587L163.834 53.6978C163.464 54.4127 163.148 55.0645 162.635 55.9561C162.37 56.4187 162.185 56.7674 161.929 57.2174L136.393 32.0816C137.844 31.2784 139.097 30.6096 140.186 30.0587Z" fill="#FFF8EE"/>
<path fill-rule="evenodd" clip-rule="evenodd" d="M172.78 18.821C160.668 18.821 149.549 21.3569 139.472 25.6339C139.157 25.7689 138.879 25.9789 138.664 26.2458C138.448 26.5128 138.301 26.8285 138.236 27.1652C138.17 27.502 138.188 27.8498 138.288 28.1781C138.388 28.5064 138.566 28.8053 138.808 29.0488L164.781 55.0929C165.024 55.3366 165.324 55.5168 165.653 55.6176C165.982 55.7184 166.331 55.7371 166.669 55.6715C167.007 55.6059 167.324 55.458 167.592 55.2413C167.859 55.0246 168.07 54.7456 168.204 54.4287C172.494 44.3271 174.883 33.0229 174.883 20.9238C174.883 20.3661 174.661 19.8312 174.267 19.4368C173.872 19.0425 173.337 18.821 172.78 18.821ZM170.446 23.2663C170.214 32.2875 168.477 41.2065 165.307 49.6554L144.212 28.5231C152.599 25.3078 161.468 23.5306 170.446 23.2663Z" fill="#FFF8EE"/>
<path d="M138.397 55.194C136.418 53.2263 133.74 52.1221 130.949 52.1221C128.158 52.1221 125.481 53.2263 123.501 55.194C121.535 57.1732 120.431 59.8499 120.431 62.6398C120.431 65.4298 121.535 68.1065 123.501 70.0856C125.48 72.0508 128.156 73.1535 130.945 73.1535C133.734 73.1535 136.41 72.0508 138.389 70.0856C140.357 68.1089 141.463 65.433 141.464 62.6434C141.466 59.8538 140.363 57.173 138.397 55.194ZM135.42 58.1674C137.909 60.6528 137.901 64.6227 135.42 67.1081C134.835 67.6999 134.139 68.1694 133.372 68.4901C132.604 68.8108 131.781 68.9763 130.949 68.9763C130.117 68.9763 129.294 68.8108 128.527 68.4901C127.759 68.1694 127.063 67.6999 126.479 67.1081C125.888 66.5228 125.419 65.8259 125.099 65.0583C124.779 64.2906 124.614 63.4675 124.614 62.6357C124.614 61.804 124.779 60.9803 125.099 60.2127C125.419 59.445 125.888 58.7481 126.479 58.1628C127.064 57.5726 127.76 57.1041 128.528 56.7844C129.295 56.4647 130.118 56.3003 130.949 56.3003C131.78 56.3003 132.603 56.4647 133.371 56.7844C134.138 57.1041 134.834 57.5726 135.42 58.1628V58.1674Z" fill="url(#paint3_linear_234_540)"/>
<defs>
<linearGradient id="paint0_linear_234_540" x1="95.0115" y1="73.2054" x2="95.0115" y2="175.204" gradientUnits="userSpaceOnUse">
<stop stop-color="#DE901B"/>
<stop offset="1" stop-color="#B66C00"/>
</linearGradient>
<linearGradient id="paint1_linear_234_540" x1="92.3345" y1="168.704" x2="92.3345" y2="187.121" gradientUnits="userSpaceOnUse">
<stop stop-color="#DE901B"/>
<stop offset="1" stop-color="#B66C00"/>
</linearGradient>
<linearGradient id="paint2_linear_234_540" x1="65.8702" y1="114.882" x2="65.8702" y2="140.779" gradientUnits="userSpaceOnUse">
<stop stop-color="#DE901B"/>
<stop offset="1" stop-color="#B66C00"/>
</linearGradient>
<linearGradient id="paint3_linear_234_540" x1="130.948" y1="52.1221" x2="130.948" y2="73.1535" gradientUnits="userSpaceOnUse">
<stop stop-color="#DE901B"/>
<stop offset="1" stop-color="#B66C00"/>
</linearGradient>
</defs>
</svg>
