<svg width="187" height="188" viewBox="0 0 187 188" fill="none" xmlns="http://www.w3.org/2000/svg">
<path d="M14.6536 146.318C13.8807 146.318 13.1395 146.625 12.593 147.172C12.0465 147.718 11.7395 148.459 11.7395 149.232C11.7395 157.444 19.083 163.803 27.7087 163.803H164.787C173.413 163.803 180.756 157.444 180.756 149.232C180.756 148.459 180.449 147.718 179.903 147.172C179.356 146.625 178.615 146.318 177.842 146.318H14.6536ZM18.9315 152.146H173.564C172.125 155.352 169.234 157.974 164.787 157.974H27.7087C23.2618 157.974 20.371 155.352 18.9315 152.146Z" fill="url(#paint0_linear_234_550)"/>
<path d="M26.3099 58.8955C25.5371 58.8955 24.7959 59.2028 24.2494 59.7493C23.7029 60.2958 23.3959 61.0367 23.3959 61.8096V149.232C23.3959 150.005 23.7029 150.747 24.2494 151.293C24.7959 151.84 25.5371 152.146 26.3099 152.146H166.186C166.959 152.146 167.7 151.84 168.247 151.293C168.793 150.747 169.1 150.005 169.1 149.232V61.8096C169.1 61.0367 168.793 60.2958 168.247 59.7493C167.7 59.2028 166.959 58.8955 166.186 58.8955H120.12V64.7237H163.272V146.318H29.224V64.7237H72.7546V58.8955H26.3099Z" fill="url(#paint1_linear_234_550)"/>
<path d="M96.2481 29.7547C80.2789 29.7547 67.3113 42.9152 67.3113 59.0243C67.3113 67.8831 71.7523 73.874 75.5989 79.7139C79.4455 85.5595 82.9191 91.3586 82.9191 101.173C82.9191 101.946 83.2261 102.687 83.7726 103.234C84.3191 103.78 85.0603 104.087 85.8332 104.087C86.606 104.087 87.3473 103.78 87.8938 103.234C88.4402 102.687 88.7473 101.946 88.7473 101.173C88.7473 89.919 84.4169 82.529 80.4596 76.5202C76.4965 70.5113 73.1394 65.9715 73.1394 59.0243C73.1394 46.0275 83.4669 35.5828 96.2481 35.5828C109.029 35.5828 119.357 46.0275 119.357 59.0243C119.357 65.9656 115.994 70.5055 112.037 76.5202C108.073 82.529 103.749 89.919 103.749 101.173C103.749 101.946 104.056 102.687 104.602 103.234C105.149 103.78 105.89 104.087 106.663 104.087C107.436 104.087 108.177 103.78 108.724 103.234C109.27 102.687 109.577 101.946 109.577 101.173C109.577 91.3586 113.045 85.5594 116.897 79.7196C120.744 73.8739 125.185 67.8889 125.185 59.0243C125.185 42.9211 112.217 29.7547 96.2481 29.7547ZM96.2015 79.5915C95.8188 79.5976 95.441 79.6792 95.0898 79.8313C94.7386 79.9833 94.4207 80.203 94.1545 80.478C93.8882 80.7529 93.6787 81.0775 93.5379 81.4334C93.3971 81.7894 93.3279 82.1698 93.334 82.5525V101.173C93.334 101.946 93.6411 102.687 94.1876 103.234C94.734 103.78 95.4753 104.087 96.2481 104.087C97.021 104.087 97.7622 103.78 98.3087 103.234C98.8552 102.687 99.1622 101.946 99.1622 101.173V82.5525C99.1685 82.162 99.0962 81.7742 98.9497 81.4121C98.8031 81.05 98.5853 80.7207 98.3091 80.4445C98.0329 80.1683 97.704 79.9508 97.3419 79.8042C96.9799 79.6577 96.592 79.5852 96.2015 79.5915Z" fill="#FFF8EE"/>
<path d="M85.8331 98.2592C85.0603 98.2592 84.3191 98.5664 83.7726 99.1129C83.2261 99.6594 82.9191 100.4 82.9191 101.173V113.856C82.9191 114.628 83.2261 115.369 83.7726 115.916C84.3191 116.462 85.0603 116.77 85.8331 116.77H106.663C107.436 116.77 108.177 116.462 108.724 115.916C109.27 115.369 109.577 114.628 109.577 113.856V101.173C109.577 100.4 109.27 99.6594 108.724 99.1129C108.177 98.5664 107.436 98.2592 106.663 98.2592H85.8331ZM88.7472 104.087H103.749V110.941H88.7472V104.087Z" fill="url(#paint2_linear_234_550)"/>
<path fill-rule="evenodd" clip-rule="evenodd" d="M88.6015 123.005C87.8287 123.005 87.0875 123.313 86.541 123.859C85.9945 124.406 85.6874 125.147 85.6874 125.919C85.6874 126.692 85.9945 127.434 86.541 127.981C87.0875 128.527 87.8287 128.834 88.6015 128.834H103.895C104.668 128.834 105.409 128.527 105.955 127.981C106.502 127.434 106.809 126.692 106.809 125.919C106.809 125.147 106.502 124.406 105.955 123.859C105.409 123.313 104.668 123.005 103.895 123.005H88.6015Z" fill="url(#paint3_linear_234_550)"/>
<path d="M96.5396 18.1101L93.101 18.2267H92.8445L90.9795 18.4483L88.0887 18.8094L88.8173 24.5967L91.708 24.2353L93.4274 24.0261L96.5687 23.9094H96.9884L99.9025 24.0666L100.223 18.2502L97.3089 18.0752H96.6678L96.5396 18.1101ZM104.886 24.9524L107.654 25.873L108.668 26.2052L112.608 28.129L115.225 29.411L117.772 24.1598L115.155 22.8778L111.093 20.9018L110.918 20.8203L110.743 20.762L109.496 20.3422L106.733 19.4216L104.886 24.9524ZM79.0259 22.0732L76.2343 23.3552L76.007 23.4605L75.803 23.6063L73.53 25.1801L71.1404 26.8349L74.4508 31.6315L76.852 29.9702L78.8977 28.5424L81.4621 27.3592L84.1139 26.1412L81.6661 20.8495L79.0259 22.0732ZM119.036 32.3891L121.076 34.4701L123.285 36.7368L124.503 38.5204L126.153 40.9215L130.955 37.6233L129.317 35.2214L127.948 33.24L127.802 33.0245L127.627 32.8551L125.238 30.4078L123.203 28.3097L119.036 32.3891ZM64.2748 33.706L61.2675 37.9199L61.1509 38.0772L61.0635 38.2465L60.7546 38.8178L59.3908 41.3882L64.5196 44.1273L65.9009 41.5625L66.1399 41.1257L69.019 37.0982L70.715 34.7319L65.9708 31.3405L64.2748 33.706ZM128.612 45.2172L129.451 48.0025L130.116 50.1767L130.127 50.2585L130.786 53.4053L131.369 56.2617L137.08 55.0843L136.486 52.2285L135.827 49.005L135.804 48.8769L135.757 48.7602L135.029 46.3299L134.19 43.5325L128.612 45.2172ZM56.3835 50.4044L56.1212 51.5463L55.4743 54.3792L61.1626 55.6783L61.8037 52.8283L62.066 51.6921L62.7129 48.8477L57.0246 47.56L56.3835 50.4044Z" fill="url(#paint4_linear_234_550)"/>
<defs>
<linearGradient id="paint0_linear_234_550" x1="96.248" y1="146.318" x2="96.248" y2="163.803" gradientUnits="userSpaceOnUse">
<stop stop-color="#DE901B"/>
<stop offset="1" stop-color="#B66C00"/>
</linearGradient>
<linearGradient id="paint1_linear_234_550" x1="96.248" y1="58.8955" x2="96.248" y2="152.146" gradientUnits="userSpaceOnUse">
<stop stop-color="#DE901B"/>
<stop offset="1" stop-color="#B66C00"/>
</linearGradient>
<linearGradient id="paint2_linear_234_550" x1="96.2481" y1="98.2592" x2="96.2481" y2="116.77" gradientUnits="userSpaceOnUse">
<stop stop-color="#DE901B"/>
<stop offset="1" stop-color="#B66C00"/>
</linearGradient>
<linearGradient id="paint3_linear_234_550" x1="96.2481" y1="123.005" x2="96.2481" y2="128.834" gradientUnits="userSpaceOnUse">
<stop stop-color="#DE901B"/>
<stop offset="1" stop-color="#B66C00"/>
</linearGradient>
<linearGradient id="paint4_linear_234_550" x1="96.2773" y1="18.0752" x2="96.2773" y2="56.2617" gradientUnits="userSpaceOnUse">
<stop stop-color="#DE901B"/>
<stop offset="1" stop-color="#B66C00"/>
</linearGradient>
</defs>
</svg>
